<?xml version="1.0" encoding="utf-8"?>
<!-- Generator: Adobe Illustrator 24.3.0, SVG Export Plug-In . SVG Version: 6.00 Build 0)  -->
<svg version="1.1" id="Layer_1" xmlns="http://www.w3.org/2000/svg" xmlns:xlink="http://www.w3.org/1999/xlink" x="0px" y="0px"
	 viewBox="0 0 9000 4000" style="enable-background:new 0 0 9000 4000;" xml:space="preserve">
<style type="text/css">
	.st0{fill-rule:evenodd;clip-rule:evenodd;fill:#F3F5F7;}
	.st1{fill:#29ABE2;}
</style>
<g>
	<rect x="0" class="st0" width="9000" height="4000"/>
	<path class="st1" d="M721.4,825.5l11.5-10.4c2.8-7.2,5.5-14.5,8.2-21.9c-3.1,3.6-6.2,7.3-9.3,10.9
		C728.3,811.4,724.8,818.5,721.4,825.5 M681.1,901.2l21.9-15.8c5.6-11.4,10.9-23.3,16-35.5c-6.4,5.9-12.8,11.8-19,17.7
		C693.7,879.1,687.5,890.4,681.1,901.2z M594.9,982.1c-6.6,4.3-13.1,8.6-19.7,12.7c-5.8,4.8-11.8,9.3-18,13.7
		C570.7,1000.9,583.3,992.1,594.9,982.1z M631.9,936.7l11.3-8.1c5.1-7,10.1-14.3,14.9-21.9l-10.3,9.6
		C642.6,923.3,637.3,930.1,631.9,936.7z M617.1,985.7c10.7-5.7,21.4-11.6,32.2-17.6c13.4-14.8,25.3-31.5,36.1-49.9l-3,2.2
		c-8.7,6.3-17.3,12.6-25.9,18.8C644.2,956.2,631.3,971.8,617.1,985.7z M429.5,1063c9.4-2.4,18.6-5,27.7-7.7l-4.1,0.2
		C445.3,1058.1,437.5,1060.6,429.5,1063z M887.5,1346.8c-1.1,1.7-2.2,3.5-3.2,5.3l2.6-3.7L887.5,1346.8z M824.3,1427.6
		c-9.1,18-16.3,37.1-21.5,57.2c12.5-13.4,22.6-29.6,30-48.8c1.3-5.5,2.7-10.9,4.2-16.3C832.8,1422.5,828.6,1425.1,824.3,1427.6z
		 M847.4,1389.2c-1.3,1.8-2.6,3.6-3.9,5.4l2.5-2L847.4,1389.2z M824.9,658.6c-2.9,10.6-5.6,21.1-8.3,31.6
		c5.3-4.9,10.7-9.7,16.2-14.6c1.8-10.8,3.7-21.8,5.7-32.7C833.8,648.1,829.3,653.3,824.9,658.6z M841.4,601.2
		c-2.1,6.9-4.2,13.8-6.2,20.6c2.9-3.1,5.8-6.3,8.8-9.4c1.3-6.9,2.6-13.8,4-20.7C845.7,594.8,843.5,598,841.4,601.2z M794.2,711.7
		l5.5-21.4c-2.6,3.4-5.2,6.9-7.7,10.3c-2.6,7.1-5.2,14.1-7.7,21.1C787.5,718.3,790.8,715,794.2,711.7z M791.6,786.5
		c-4.3,16-8.8,31.6-13.4,46.8c9.5-6.2,19.1-12.4,29-18.5c3.4-15.6,6.6-31.7,9.7-48.2C808.3,773.2,799.8,779.8,791.6,786.5z
		 M807.9,724c-3.1,12.1-6.2,24.1-9.3,36c7.4-5.7,14.9-11.4,22.6-17.1c2.4-13.5,4.7-27.2,7.1-41.2c-6.6,6.1-13.1,12.3-19.5,18.5
		L807.9,724z M777.2,777c3-11.1,5.9-22.3,8.8-33.7c-5.3,5.6-10.5,11.1-15.6,16.7c-3.9,11-7.8,21.8-11.7,32.5
		C764.8,787.4,771,782.2,777.2,777z M756.4,847.8c4.6-13.8,8.9-28.2,13.2-43c-7.8,6.6-15.3,13.2-22.8,19.9
		c-5.5,14.2-11,28-16.8,41.4C738.6,860,747.4,853.9,756.4,847.8z M736.2,938c-14.7,27-32.1,50.2-53.4,68.7
		c16.2-7,32.5-14.2,49.1-21.6l3.9-1.7c16.9-18.7,30.3-41.6,41.3-67.8C763.1,923.1,749.5,930.6,736.2,938z M757.5,892.2
		c-2.8,6.8-5.6,13.5-8.6,20.1c12.1-6.6,24.4-13.3,36.9-19.9c6-17.3,11.3-35.7,16.1-55.1c-10.9,6.9-21.4,13.9-31.8,20.9
		C766.1,869.9,762,881.2,757.5,892.2z M723.9,926.2c6.7-12.5,12.9-25.9,18.5-40c1.6-4,3.2-8.1,4.8-12.3
		c-10.4,7.3-20.7,14.5-30.7,21.8c-8.8,18-18.1,35-28.4,50.6l1.6-0.9C700.9,939.1,712.3,932.7,723.9,926.2z M598.7,1030.3
		c47.8-11.6,81.8-38.4,107.8-75.6l-8.9,5c-11.4,6.4-22.7,12.8-33.9,19C645.3,999.9,624,1017.4,598.7,1030.3z M0,1179.8
		c139.4,48,262.9,80.8,374,98.9c259.1,42.4,450.8,5.1,621.6-105.2c168.5-244.3,631.6-312.2,1126.8-384.8
		c655.7-96.1,1368-200.5,1513.7-732.3c5-18.4,9.6-37.2,13.7-56.6h16.7c-4.4,20.8-9.3,41.1-14.7,60.8
		c-148.5,542.1-866.3,647.3-1527,744.1c-451,66.1-875.3,128.3-1069.2,322.4c213.7-165.2,623.8-218,1059.6-274
		c678-87.1,1418.8-182.4,1566.2-720.2c11.5-42,20.5-86.7,28-133.2h16.5c-7.6,47.9-16.8,94.1-28.7,137.5
		c-150.2,548.3-896.7,644.2-1579.9,732c-458.9,59-889.1,114.3-1086.1,300c220-154.6,633-200.7,1072.9-249.9
		c702.2-78.4,1473.3-164.6,1622.7-709.8c17.7-64.7,29.6-135.6,38.7-209.8h16.4c-9.3,75.6-21.3,148-39.4,214.1
		c-152.3,555.9-929.2,642.8-1636.7,721.8c-471.6,52.7-912.1,101.9-1111.5,283.8c225.3-148.7,646.1-189.1,1095.4-232.3
		c727.8-69.9,1530.6-147.1,1682.3-700.9c23.7-86.6,36.9-184.6,47.3-286.5h16.4c-10.5,103.2-23.8,202.5-47.9,290.7
		c-154.7,564.7-963.4,642.4-1696.5,712.9c-482.6,46.4-932.1,89.6-1136.1,265.9l-0.1,0.1l-0.7,1.3l-1.1,1l-0.1,0.1
		c231.1-143.3,660.5-178.4,1119.8-215.8c754.4-61.5,1589.9-129.7,1744.3-693c29.6-108.2,42.8-234,54.6-363.1h16.3
		c-11.9,130.4-25.1,257.5-55.2,367.4c-157.4,574.4-998.9,643-1758.7,705c-488.3,39.8-942.5,76.9-1155.2,243.1
		c-6.6,12.7-12.4,25.8-17.3,39.5l-0.4,1l-0.6,0.9c-12,17.3-25.7,32.4-40.9,45.5c-4.6,12.3-8.4,24.9-11.5,38l-0.1,0.6l-0.2,0.5
		c-11.5,30.2-28.7,53.6-51.2,70.9c-0.7,4.5-1.4,8.9-2,13.5c-10.7,90.6-76.3,121.1-184,108.3c-140-16.6-353.8-108.2-611-235.4v-18.2
		c258.8,128.3,473.6,220.9,612.9,237.4c97.1,11.5,156.2-14.8,165.8-93.5c-97.8,55.5-274.2,20.9-506.1-67.7
		c-83.9-32-175.1-71.1-272.5-115.5v-18c99.7,45.5,192.9,85.5,278.3,118.1c237.3,90.6,414.1,124.4,503.7,61.3
		c4.1-22.3,10.4-43.3,18.6-63.3c-114.3,50.9-285.2,30-504.4-40.3c-90.6-29.1-189.5-66.6-296.2-111v-17.7
		c108.7,45.4,209.3,83.6,301.2,113.1c227.4,73,401,92.1,510.5,32c17.5-33.4,41.1-63.4,70.2-90.3l0.6-0.9
		c-132.8,77.9-313.1,80.6-548.8,22.4c-100.8-24.9-211.8-60.9-333.7-106.9v-17.4c123.5,46.8,235.9,83.4,337.6,108.5
		c262.4,64.7,454,53.1,585.9-55c9.7-14.4,20.4-28.1,32.3-41.2c6.7-10.7,14-21.1,21.8-31.2c-167.6,99.6-356.3,131.9-606.3,91
		C260.8,1276.7,138.2,1244.3,0,1197V1179.8z M0,1142c156.9,49.3,290.5,75.9,410.2,84.3c243.8,17,430.4-41.9,639.9-139.7
		c193.2-213.8,621-284.7,1074-359.8C2751.9,622.7,3428.5,510.5,3584.9,0h17c-156.5,524.2-840.5,637.6-1475.1,742.8
		c-451,74.7-876.9,145.3-1065.7,355.9l-1.1,1.2l-1.5,0.7C846,1200,656.9,1259.8,409.1,1242.5c-119.7-8.4-253-34.8-409.1-83.5V1142z
		 M0,1109.1c437.9,127.9,663.9,47.3,978.2-64.9c40.4-14.4,82.3-29.4,126.4-44.5C1318.1,816.5,1708.7,744,2118.1,668
		C2698.1,560.3,3316,445.5,3511.3,0h17.8C3333.9,458.7,2708.2,575,2121,684c-407.9,75.7-797.2,148-1007.1,329l-1.2,1.1l-1.4,0.5
		c-44.3,15.2-86.7,30.3-127.6,44.9c-316.5,113-544.3,194.2-983.7,66.7V1109.1z M0,1080.7c371.7,104.9,565.6,34.1,816.5-57.6
		c100.2-36.6,209.4-76.5,342.4-110.1c227.4-152,578.1-224.2,941.4-298.9C2637.2,503.6,3201.4,387.4,3427.6,0h18.9
		C3220.4,400.2,2648,518,2103.6,630c-362.3,74.5-712.1,146.5-936.8,297.3l-1.2,0.8l-1.3,0.3c-132.9,33.4-242.1,73.3-342.2,109.9
		C569,1130.9,373.3,1202.3,0,1097.7V1080.7z M0,836c119.9,44.7,248.6,95.1,387.9,150.3c33.5,13.3,64.1,23.8,92.3,31.7
		c30.5-14.4,58.5-32.4,85.3-52.9c40-34.1,75.3-76.3,112.3-121.4c8-12.4,16.1-25.2,24.3-38.1c13.9-22,28.3-44.7,43.4-67.4
		c16.2-33.1,33.4-66.9,53.1-100.3c13.4-32.8,28.2-65.6,45.6-97.6c11.6-32.3,24.9-64.3,40.7-95.4c77.8-238.4,258-445.7,814.4-396.2
		C2083.1,83,2345,61.3,2527.1,0h50.5c-185.6,73.7-461.1,102.3-879.6,65.1c-471.6-41.9-667.4,104.2-761,295.4
		c110.5-148.9,309.3-254.6,708.7-225.3v0c475.4,25,775.4-28.2,973.1-135.2h35.5C2454.6,118,2146,177.8,1644.6,151.5h-0.2
		C1183.8,117.7,995.5,267,899.9,452.7l-0.5,1.6c110.9-145.4,302.9-254.6,692.4-232.8c538.7,6.3,872.3-74.7,1091.4-221.6h28.7
		C2490.5,157.3,2150,244.4,1591.3,237.9h-0.4c-416.2-23.3-602.5,105.7-706.4,267c-1.8,6.6-3.4,13.2-5.1,19.8
		c114.3-130,299.7-229.7,658.3-216.8c559.2-19.3,927-114.1,1176.7-283.9c11.5-7.8,22.8-15.8,33.8-24h27
		c-16.6,12.8-33.8,25.3-51.6,37.5c-252.3,171.6-623,267.4-1185.6,286.7h-0.5c-374-13.5-556,97.6-666.4,236.6
		c-2.2,10.3-4.4,20.5-6.4,30.8c117.1-113,294.9-201.4,618.8-197.3c523-45.6,913.9-135.5,1196.7-297.7
		c51.8-29.7,99.9-61.8,144.6-96.5h26.3c-49.8,40.2-104,77-162.8,110.7c-285.1,163.5-678.1,254.1-1203.5,299.8l-0.1,0l-0.7,0
		c-334.2-4.4-510.2,91.3-624.9,210c-2.4,13-4.7,25.9-6.9,38.7c118.5-96.9,287.8-174.6,577.4-178.6
		c486.5-71.9,900.4-156.9,1216.2-311.4c99.8-48.8,189.9-104.6,269.4-169.2h25.7c-84.1,70.7-180.4,131.3-287.9,183.8
		c-317.8,155.5-733.3,240.9-1221.4,313l-0.4,0l-0.7,0c-297,3.9-465.5,86.6-582.7,187.5l-2.1,12.3c-1.9,11-3.7,21.9-5.6,32.7
		C958.7,647,1118.6,578.5,1375.6,567c66.8-14.6,135.4-29.2,203.3-43.7C2152.7,401.1,2685.5,287.5,3016.8,0h25.1
		C2709,299.1,2166.8,414.8,1582.3,539.3c-66.8,14.2-134.1,28.6-203.8,43.8l-0.5,0.1l-0.8,0c-263,11.7-422.9,83.9-541.1,169.1
		c-3.1,17.3-6.3,34.3-9.7,50.7c117.6-69.9,267.7-131,495.3-149.7c174.7-52.6,358-96.5,540.3-140.1C2351.8,396,2833.7,280.5,3124.6,0
		h23.7C2856,292,2364.9,409.6,1865.7,529.1c-181.9,43.6-365,87.4-540.2,140.2l-0.8,0.2l-0.9,0.1c-233.1,19-384.1,83.3-502.2,155.4
		c-4.5,19.8-9.4,38.7-15,56.6c116.7-59.7,257.9-116.1,460.9-141.8c218.6-87.5,472.1-147.8,727.5-208.5C2475.6,417,2963,301,3232.1,0
		h22c-270,312.7-766.2,430.9-1255.4,547.3c-255.2,60.7-508.6,121-726.1,208.1l-0.9,0.4l-1.1,0.1c-209.5,26.4-352.8,86-471.5,148.1
		c-1.4,3.9-2.8,7.7-4.3,11.4c-7.8,19.8-16.8,37.9-27.3,54.1c120.1-52.7,256.8-108.6,445.7-143.1c231.2-120.3,537.6-189,850.8-259.2
		C2565.4,454.7,3084.3,338.3,3334.1,0h20.4c-250.2,350.5-777.5,468.8-1287,583.1c-312.4,70.1-618.2,138.6-847.8,258.3l-1,0.5
		l-1.3,0.2c-201.9,36.6-344.3,98.4-470.5,154.2c-31.6,34.8-74.5,55.8-135.2,57.7c-166.1,65.2-332.3,98-611.6,18.6v-17.1
		c256.6,73.5,416.6,51.6,569-3c-15.6,1.4-32.3,1.5-50.4,0.3c-2.1,0.2-4.1,0.4-6.3,0.6c-129.8,51.3-276.8,67.4-512.4-3.7v-17.1
		c77.9,23.7,146,37.8,207,44.2c-60.3-7.6-128.4-23.5-207-49.6v-17.3c59.5,19.9,112.9,34,161.4,42.9c-48.4-11-101.8-27.1-161.4-49.2
		v-17.4c66.7,25,125.6,42.4,178.2,53.4c-52.8-13.9-111.7-34.1-178.2-61.6v-17.7c83.2,34.8,154.4,58,216.2,71.5
		c-47-13.4-99.2-31.9-157.4-56.5v0L0,951v-17.6c21.4,8.8,43.1,17.8,65,26.8l0.1,0c76.6,32.3,142.4,54,199.5,66.9
		c-38-11.4-79.5-26.3-125-45.3l0,0C91.9,962.3,45.4,943.4,0,925.1v-17.5c47.4,19.1,95.9,38.9,145.7,59.2h0.1
		c66.8,27.8,124.6,46.7,175.2,58.1c-31-9.6-64.4-21.7-100.6-36.5l0,0C143.9,957.5,70.6,928,0,900.2v-17.6
		c72.5,28.6,147.9,58.9,226.5,90.7v0c58.8,24.1,110.2,40.7,155.3,50.9c-25.2-8-52-17.7-80.6-29.2C195,952.4,94.8,912.7,0,876.2
		v-17.5c96.7,37.1,198.8,77.6,307.2,121c53,21.4,99.5,36.3,140.4,45.4c-20.7-6.7-42.6-14.6-65.7-23.7
		c-137-54.4-263.8-104-381.9-148.1V836z"/>
	<path class="st1" d="M7058.7,3568c205-8.7,439.2-5.9,707.5-0.2h0c72.3,2,133.2-1.1,184.5-8.6c-32.4,2.1-68,2.9-107.1,2
		C7539.1,3555.8,7280.1,3554,7058.7,3568 M6973.3,3588.7c207.9-8.5,444.8-4.8,715.3,1.9h0.1c83.1,2.7,152.3-0.6,210.2-9.1
		c-39.6,3-83.7,3.9-133,2.6C7459.4,3577.5,7197.6,3574.8,6973.3,3588.7z M6889.3,3609.2c210.6-8.2,449.9-3.6,721.6,4.2h0.1
		c97.8,3.7,178.1-0.1,244.6-10.3c-48.7,4.4-104.1,5.8-167.4,3.7C7380.4,3599.2,7116.3,3595.5,6889.3,3609.2z M8252.9,3229.5l7-13.8
		c0-7.7-0.1-15.5-0.2-23.4l-4.8,13.5C8254.3,3213.8,8253.7,3221.7,8252.9,3229.5z M6804,3629.6c213.8-7.9,455.8-2.4,729.2,6.6h0.1
		c117.6,5,212.2,0.4,289.6-12.2c-60.2,6.6-130.3,8.7-212.5,5.6C7301.1,3620.8,7034.3,3616.1,6804,3629.6z M8242.5,3314.5l14.7-22.6
		c1.1-12.6,1.8-25.6,2.2-38.9c-3.9,7.8-7.7,15.6-11.4,23.3C8246.4,3289.4,8244.6,3302.1,8242.5,3314.5z M8190.9,3421.2
		c-4.5,6.3-9.1,12.5-13.7,18.7c-3.7,6.5-7.6,12.9-11.8,19.1C8175.3,3447.2,8183.7,3434.6,8190.9,3421.2z M8209.4,3365.3l7.6-11.5
		c2.2-8.4,4.2-16.9,6-25.7l-6.1,12.5C8214.5,3349,8212,3357.2,8209.4,3365.3z M6717.8,3650c217.3-7.6,462.4-1.1,737.7,9.1h0.1
		c148.3,7.1,263.8,0.6,356.1-16.6c-75.8,11-167.3,14.8-279.1,10C7221.7,3642.3,6951.6,3636.6,6717.8,3650z M8213,3416.3
		c7.9-9.2,15.8-18.5,23.7-27.9c7.2-18.6,12.3-38.5,15.8-59.5l-2.1,3.2c-5.9,9-11.6,18-17.4,26.8
		C8227.8,3379.1,8221.3,3398.3,8213,3416.3z M8065.9,3555.6c7.8-5.5,15.4-11.2,22.8-16.9l-3.7,1.6
		C8078.8,3545.5,8072.4,3550.6,8065.9,3555.6z M6632,3670.1c220.9-7.3,469.1,0.2,745.9,11.8h0.1c214.8,11.3,368.5-2.1,485.2-33.5
		c-100.9,24.9-231.8,35.4-408.3,26.9C7142.7,3663.7,6869.5,3657,6632,3670.1z M6285.4,3749l22.5-0.5l0.9-0.6
		C6301,3748.3,6293.2,3748.6,6285.4,3749L6285.4,3749z M6253.4,3767.5c9-0.1,18.1-0.1,27.2-0.2l2.7-1.9c-9.2,0.2-18.4,0.5-27.6,0.7
		L6253.4,3767.5z M6199.2,3768.3l22.8-0.4l1-0.7l-23.6,0.9L6199.2,3768.3z M6223.1,3786.7c10.3,0,20.7,0.1,31.1,0.2l4.1-3.1
		c-10.5,0.1-21,0.2-31.4,0.3L6223.1,3786.7z M6166.8,3786.7c9.1,0,18.3-0.1,27.5-0.1l2.8-2c-9.3,0.2-18.6,0.4-27.9,0.6
		L6166.8,3786.7z M6112.2,3787.3l23.1-0.3l1.1-0.7c-8,0.3-15.9,0.6-23.9,0.9L6112.2,3787.3z M6194.3,3806.6
		c11.5,0.2,23.1,0.4,34.7,0.7l5.1-4.3c-11.6-0.1-23.1-0.1-34.6-0.1L6194.3,3806.6z M6136,3805.8c10.5,0.1,21,0.2,31.5,0.4l4.3-3.2
		c-10.6,0-21.2,0.1-31.7,0.2L6136,3805.8z M6079.3,3805.6c9.3,0,18.5,0,27.8,0l2.9-2.1c-9.4,0.2-18.8,0.3-28.2,0.5L6079.3,3805.6z
		 M6024.2,3806l23.4-0.2l1.2-0.8l-24.2,0.8L6024.2,3806z M8594.9,3656.5l-1.2,6.2l1.2-4.4V3656.5z M6167,3827.3
		c12.5,0.4,25.1,0.8,37.7,1.3l5.9-5.3c-12.5-0.3-25.1-0.5-37.5-0.7L6167,3827.3z M6106.9,3825.7c11.6,0.3,23.3,0.5,35,0.9l5.3-4.3
		c-11.7-0.1-23.4-0.2-35-0.3L6106.9,3825.7z M6048.1,3824.7l31.9,0.5l4.4-3.3c-10.7,0-21.4,0.1-32.1,0.1L6048.1,3824.7z
		 M5990.8,3824.3c9.4,0,18.8,0,28.2,0.1l3-2.1c-9.5,0.1-19.1,0.3-28.5,0.5L5990.8,3824.3z M5935.1,3824.5l23.7-0.2l1.3-0.8
		c-8.2,0.2-16.4,0.4-24.6,0.7L5935.1,3824.5z M8564.9,3754.6c-2,20.1-1.9,40.5,0.5,61.2c6.9-16.9,10.5-35.6,10.5-56.2
		c-0.8-5.7-1.4-11.3-1.9-17C8571,3746.8,8568,3750.7,8564.9,3754.6z M8572.7,3710.6c-0.5,2.1-1.2,4.3-1.7,6.4l1.6-2.8L8572.7,3710.6
		z M6140.8,3848.9c13.4,0.6,26.9,1.2,40.4,1.8l6.6-6.4c-13.4-0.4-26.8-0.9-40.2-1.2L6140.8,3848.9z M6079,3846.5
		c12.7,0.4,25.4,0.9,38.1,1.4l6.2-5.5c-12.7-0.3-25.3-0.6-37.9-0.8L6079,3846.5z M6018.4,3844.7c11.8,0.3,23.6,0.6,35.4,1
		c1.8-1.5,3.7-3,5.6-4.4c-11.8-0.2-23.6-0.3-35.4-0.4L6018.4,3844.7z M5959,3843.5c10.8,0.2,21.5,0.3,32.3,0.5l4.6-3.4
		c-10.8,0-21.6,0-32.4,0L5959,3843.5z M5901.1,3842.9c9.6,0,19.1,0.1,28.7,0.2l3.3-2.2c-9.7,0.1-19.4,0.2-29,0.4L5901.1,3842.9z
		 M5844.8,3842.9c8.1,0,16.1-0.1,24.2-0.1l1.6-0.9c-8.3,0.2-16.7,0.4-24.9,0.6L5844.8,3842.9z M6477.2,3709.5l0.6-0.4l-18.8,0.9
		L6477.2,3709.5z M6361,3828c-2.4,2.4-4.8,4.9-7.1,7.4c132.5,7.2,267.3,17.4,402.6,29.3l0,0c114.3,10.3,225.5,21,333.5,31.3
		c375.3,35.9,712.1,68.1,970.2,67.6c254-0.5,431.1-32.4,492.1-123.4c-4.2-22.3-5.9-44.2-5.3-65.8
		c-88.4,88.5-255.4,130.3-485.3,143.3c-308.6,17.4-731.1-16.8-1228.9-59.5C6672.4,3845.1,6514.3,3834.3,6361,3828z M6383.4,3805.8
		l-6.7,6.4c148.8,6.4,302.1,17,457.5,29.5h0c497.3,42.7,919.4,76.9,1226.7,59.5c238.4-13.5,407.3-57.8,488-153.1
		c4.3-37.5,15.6-73.9,33.2-109.5l0.2-1c-96,120.3-263.4,187.5-504.3,217.7c-284.5,35.7-672.4,20-1167.5-20.2v0
		C6729.1,3821.8,6552.4,3810.8,6383.4,3805.8z M6406.6,3784.6c-2.1,1.8-4.1,3.7-6.1,5.5c164.3,5.2,335.6,15.9,511.4,28.9h0.1
		c494,40.1,880.9,55.8,1164.2,20.3c268.2-33.7,442.9-113.2,527.2-261.6c3.9-16.8,8.9-33.4,15.3-49.8c2.4-12.4,5.5-24.8,9.2-37
		c-120.8,153.1-285.3,250.9-533.4,302.4c-260.7,54.1-613.9,57-1106.1,19.3v0C6785.4,3798.6,6590.5,3787.7,6406.6,3784.6z
		 M8289.7,3036.7c1.1,10.9,2.3,21.7,3.5,32.4c3.2-6.5,6.5-13,9.9-19.4c-2.2-10.8-4.3-21.6-6.4-32.6
		C8294.3,3023.6,8292,3030.1,8289.7,3036.7z M8284.5,2977.2c0.5,7.1,1,14.3,1.6,21.3c1.6-4,3.2-8,4.8-12c-1.3-6.9-2.5-13.8-3.7-20.7
		C8286.3,2969.6,8285.4,2973.4,8284.5,2977.2z M8280.1,3097.1l-2.5-22c-1.2,4.2-2.4,8.3-3.5,12.5c0.1,7.5,0.2,15,0.4,22.4
		C8276.2,3105.8,8278.1,3101.4,8280.1,3097.1z M8304.5,3167.9c1.7,16.5,3.2,32.7,4.2,48.5c6.6-9.2,13.4-18.4,20.5-27.7
		c-2.4-15.8-5.1-31.9-8.2-48.5C8315.3,3149.5,8309.8,3158.7,8304.5,3167.9z M8297.3,3103.7c1.5,12.4,2.9,24.8,4.3,36.9
		c4.8-8,9.8-16,15-24.1c-2.6-13.5-5.3-27.2-8.1-41c-4,8.1-7.9,16.2-11.6,24.3L8297.3,3103.7z M8287.7,3164.3
		c-1.2-11.4-2.5-23-3.9-34.7c-3,7.1-5.8,14.2-8.6,21.3c0.3,11.6,0.5,23.2,0.7,34.6C8279.8,3178.4,8283.7,3171.3,8287.7,3164.3z
		 M8293.6,3237.7c-0.7-14.6-1.8-29.5-3.1-44.8c-4.9,9-9.6,17.9-14.2,26.8c0,15.2-0.2,30.1-0.8,44.6
		C8281.4,3255.5,8287.4,3246.6,8293.6,3237.7z M8192.2,3496.1c-14.1,6.9-29.7,13-47,18.3c-1.9,0.9-3.7,1.9-5.6,2.8
		c-136.6,125.5-324.1,204.1-762.5,181c-313.7-13.1-590.5-21-832.2-8.1c225.1-6.9,476.8,1.7,755.3,14.6h0.1
		C7818,3734.6,8022.9,3641.8,8192.2,3496.1z M8307.1,3329.3c-4.1,30.5-11.9,58.4-25.2,83.3c12.6-12.4,25.3-25,38.2-37.8l3-3
		c9.1-23.5,13.4-49.7,14.2-78.1C8326.9,3305.7,8316.9,3317.5,8307.1,3329.3z M8310.6,3278.8c-0.1,7.4-0.4,14.6-0.8,21.8
		c8.9-10.5,18-21.1,27.3-31.8c-0.6-18.3-2.3-37.4-4.8-57.2c-7.7,10.3-15.1,20.7-22.2,30.9C8310.6,3254.9,8310.8,3267,8310.6,3278.8z
		 M8291.4,3322.6c1.8-14.1,2.7-28.8,3-44c0.1-4.3,0.1-8.7,0.1-13.2c-7.2,10.6-14.1,21-20.9,31.4c-1.7,20-4.4,39.1-8.3,57.4l1.2-1.4
		C8274.5,3342.8,8282.9,3332.8,8291.4,3322.6z M8211.8,3464.7c40.5-28,62.6-65.2,73.6-109.3l-6.5,7.8c-8.4,10.1-16.6,20.1-24.9,30
		C8244.4,3419.7,8230.8,3443.6,8211.8,3464.7z M6398.1,3745.3l-3.6,2.4l30.6,0l3.8-3C6418.6,3744.9,6408.3,3745.1,6398.1,3745.3z
		 M6425.9,3727.3l-2,1.2l26.7-0.3l1.5-1.1l0.9-0.7C6443.9,3726.7,6434.9,3727,6425.9,3727.3z M7921.3,3538.4
		c-302.4-4.3-558.9-5.4-777.5,8.7c202.3-8.9,433.9-6.9,700-2.2h0c63.6,1.4,117.5-1.5,163.3-8.2
		C7980.9,3538.3,7952.3,3538.9,7921.3,3538.4z M7226.8,3526.3c200.2-9.2,429.9-8,694.8-4.2h0c57.2,0.9,106-1.8,147.5-8
		c-21.8,1.2-45,1.7-70,1.4C7697.9,3512.2,7443.3,3512,7226.8,3526.3z M6393,3729.1l0.8-0.5l-22.2,1L6393,3729.1z M6274.8,3847.8
		l-7.3,7.5c14.7,0.9,29.5,1.8,44.2,2.7c2.3-2.7,4.6-5.4,7-8.1C6304,3849.1,6289.3,3848.4,6274.8,3847.8z M6297.5,3825.6l-6.9,6.5
		c14,0.7,28,1.4,42,2.1c2.2-2.4,4.4-4.7,6.7-7.1C6325.3,3826.6,6311.4,3826,6297.5,3825.6z M6321.1,3804.3c-2.1,1.8-4.2,3.7-6.3,5.6
		c13.2,0.5,26.4,1,39.7,1.5l6.2-6.2C6347.4,3804.9,6334.2,3804.5,6321.1,3804.3z M6345.7,3783.8l-5.7,4.6c12.3,0.3,24.6,0.6,37,1
		l5.5-5.2C6370.2,3784,6358,3783.9,6345.7,3783.8z M6371.4,3764.1l-4.8,3.5c11.3,0.1,22.7,0.3,34,0.5l4.8-4.1
		C6394,3764,6382.7,3764.1,6371.4,3764.1z M6366,3747.9l2.6-1.9c-9.2,0.2-18.3,0.5-27.4,0.8l-2.2,1.3L6366,3747.9z M6340.1,3767.4
		l4-3.1c-10.4,0.1-20.8,0.3-31.1,0.4l-3.8,2.5C6319.5,3767.3,6329.8,3767.4,6340.1,3767.4z M6315.2,3787.8l5-4.2
		c-11.5,0-22.9-0.1-34.3,0l-5,3.6C6292.3,3787.4,6303.8,3787.6,6315.2,3787.8z M6291.3,3809.1l5.7-5.2c-12.5-0.2-24.9-0.4-37.2-0.5
		l-5.9,4.7C6266.4,3808.3,6278.8,3808.7,6291.3,3809.1z M6268.3,3831.1l6.3-6.2c-13.3-0.4-26.6-0.8-39.9-1.1l-6.5,5.6
		C6241.6,3830,6254.9,3830.5,6268.3,3831.1z M6246,3854.1c2.3-2.5,4.6-4.9,6.9-7.3c-14.1-0.6-28.2-1.2-42.2-1.7
		c-2.4,2.2-4.7,4.4-7.1,6.7C6217.7,3852.5,6231.9,3853.3,6246,3854.1z M4900.3,4000c131.8-62.1,290.2-102.5,466.3-126.8
		c32.2-6.1,65.2-11.6,98.7-16.5c30.9-6.1,62.5-11.6,94.7-16.5c30.8-6.4,62.3-12,94.4-17.2c30-6.4,60.7-12.2,92-17.4
		c29.6-6.5,59.8-12.4,90.6-17.7c29-6.6,58.7-12.6,89-17.9c28.9-6.8,58.4-12.8,88.7-18.4c28.5-6.8,57.7-13,87.6-18.6
		c28.2-6.9,57-13.1,86.6-18.8c27.7-6.9,56.1-13.2,85.2-18.9c27.6-7,55.9-13.4,84.9-19.2c27.4-7.1,55.6-13.6,84.6-19.4
		c26.9-7.1,54.5-13.5,82.8-19.4c26.8-7.2,54.4-13.7,82.8-19.7c26.3-7.1,53.4-13.6,81.3-19.6c26-7.1,52.8-13.7,80.5-19.6
		c291.8-81.1,684.5-85.3,1228.2-79.3c36,0.4,68.4-0.8,97.6-3.5c23.4-24.4,43-51.2,60.7-80c25.1-46.1,42.8-98,61.2-153.2
		c3.1-14.6,6-29.5,9.1-44.6c5.1-25.5,10.3-51.7,16.4-78.3c3.3-36.9,7.3-74.8,13.7-113.2c0.7-35.2,2.8-71,7.5-107
		c-0.8-34.4,0.2-69,3.8-103.7c-12.9-250.4,81.1-508.6,618.2-661.9c39.1-11.2,76.5-22.4,112.6-33.8v17.1
		c-34.8,10.9-70.7,21.6-108.2,32.3c-455.2,130-585.6,336.6-604.5,548.7c49.8-178.6,197.4-348.7,580.8-464.5v0
		c46-14.9,89.8-30,131.9-45.2v17.3c-40.6,14.6-82.8,29-127,43.4l-0.2,0.1c-442,133.6-564.3,340.5-587,548.1l0.1,1.8
		c51.4-175.5,191.4-346.2,562.6-465.6l0,0c52.9-19.6,103.3-39.3,151.4-59.1v17.6c-46.4,19-95,37.9-145.8,56.8l-0.3,0.1
		c-396.9,127.5-524.5,314.7-563.7,502.5c0.7,6.8,1.5,13.6,2.4,20.3c60.1-162.4,197.5-322,537-438.5c59.5-25.3,116.2-50.5,170.4-75.9
		v18c-52.4,24.4-107.2,48.8-164.5,73.1l-0.5,0.2c-354,121.5-484.1,290.6-537.2,459.9c1.6,10.4,3.3,20.7,5,30.9
		c68.8-147.5,203.1-293.9,507.2-406.2c66.1-32.2,129.4-64.3,190.1-96.4v18.5c-58.6,30.9-119.6,61.8-183.2,92.8l-0.4,0.2l-0.4,0.2
		c-313.5,115.7-443.5,268.2-508,420.2c2.4,13,4.9,25.8,7.4,38.6c75.9-133,206.1-266.3,475.2-373.9c71.9-40.6,141.8-80.7,209.4-120.7
		v18.9c-65.3,38.5-132.7,77.2-201.9,116.3l-0.5,0.3l-0.5,0.2c-275.8,110.2-403.4,247.8-476.7,384l2.5,12.3l6.5,32.5
		c81.1-119.4,205.9-240.7,441.8-343.7c59.8-39.3,117.2-76.6,174-113.6l54.9-35.7v19.4l-46,30c-58.6,38.1-117.7,76.6-174.5,113.9
		l-0.6,0.4l-0.6,0.3c-241.3,105.2-364.7,229.9-444.5,351.9c3.3,17.3,6.4,34.3,9.1,50.8c84.7-107.4,202.9-218.3,408.6-317.3
		c80.2-62.2,163.7-122.6,248.5-182.3v19.9c-81.7,57.6-162,115.9-239.1,175.7l-0.6,0.5l-0.8,0.4
		c-210.8,101.3-328.7,215.4-413.1,325.2c2.9,20.1,5.1,39.5,6.3,58.2c87.6-97.6,199.2-200.8,379.4-297.6
		c81.4-75.4,172.1-147.9,268-219.1v20.3c-92.2,68.8-179.4,138.8-257.7,211.4l-0.8,0.7l-1,0.5c-186.1,99.8-298.5,206.8-387,307.3
		c0.1,4.1,0.1,8.1,0,12.2c-0.2,21.3-2.1,41.5-6.1,60.4c93.3-92.3,200.9-193.7,364.9-293.5c79.7-90.1,178.3-175.6,287.6-259.1v20.5
		c-105,80.8-199.6,163.5-276.2,250.3l-0.9,1l-1,0.6c-175.5,106.7-286.1,215.3-384,312.7c-17,43.9-49.6,78.9-105.5,102.4
		c-178.4,163.2-378.2,270.8-933.1,238.8v0c-292.9-13.6-556.1-22.4-789.5-13.4l-1.8,1.1c216.3-3.9,454.8,5.4,714.5,18.8h0.1
		c738.3,46.1,924.2-116,1190-347.8c80.4-70.1,168.1-146.6,280.2-225.6c74.8-106,182-205.1,307.3-301.4v20.6
		c-120.3,93.3-223,189.3-294.8,291.4l-0.8,1.2l-1.2,0.8c-112.1,78.9-199.7,155.3-280,225.3c-268.8,234.4-456.8,398.3-1201.7,351.8
		c-269.8-13.9-516.6-23.4-739.2-18.2l-3.5,2.4c204.8-1,427.4,8.9,665.9,22.4h0.1c881.1,59.2,1091.3-121.3,1426.2-408.9
		c32.9-28.3,67.1-57.6,102-86.9C8739.3,3132,8856,3019,9000,2909.8v20.5c-138.4,106-250,215.4-313.3,333.5l-0.8,1.4l-1.2,1
		c-36.8,30.8-70.5,59.8-103,87.7c-337.9,290.2-550.1,472.5-1437.8,412.8v0c-247.1-14-477.1-24.1-687.7-22.2l-4.6,3.5
		c192.3,1.5,398.4,11.8,615.7,25.3h0.1c487.5,35.1,804.1,13.8,1039-58.1c233.6-71.5,386.7-193.4,547.1-359.9
		c54-139.9,181.2-266.6,346.6-388.6v20.2c-159,118.6-280.7,241.2-332,375.8l-0.6,1.5l-1.2,1.2c-162.6,168.9-317.8,292.6-555.3,365.3
		c-236.8,72.5-555.3,94-1044.8,58.8v0c-224.8-14-437.5-24.5-635.3-25.4l-5.5,4.5c178.8,3.6,367.7,14.2,564.1,27.5h0.1
		c490.8,37.6,842.5,34.8,1101.6-18.9c257-53.3,422.6-156.9,542.6-321c38-157.5,177-297.5,366.3-432v20
		c-153.5,110.2-271.9,223.7-326.8,347.1c66.2-108.9,182.2-210.1,326.8-308.5v19.7c-156.2,107.3-277.1,217.7-334.6,337.2
		c70.2-104.5,188.4-202,334.6-297v19.4c-164.1,107.6-291.1,218-351,337.6c74.3-103.9,198.2-201,351-295.7v19.1
		c-172.2,107.6-305.8,217.8-369.7,337.1l0,0.1l-0.2,1.5l-0.6,1.3l0,0c79-104.1,209.8-201.4,370.5-296.5v18.9
		c-177.5,105.7-316.8,213.9-386.8,330.6c-1.6,14.2-2.3,28.5-2,43l0,1.1l-0.2,1c-5,20.5-12.3,39.5-21.9,57.1
		c0.1,13.1,1,26.3,2.9,39.6l0.1,0.4l0,0.7c0.1,32.2-7.6,60.3-22.4,84.5c0.9,4.4,1.9,8.9,3,13.4c17,66.9-7.8,113-66.4,143h-42.6
		c75.6-25.7,110.6-69.6,93.3-138.5c-71.4,86.9-248.5,117.8-496.8,118.3c-259,0.5-596.1-31.7-971.8-67.6
		c-108.5-10.4-220.3-21.1-333.4-31.3v0c-139.8-12.2-279-22.7-415.6-30c-2.5,2.8-5,5.5-7.5,8.4c319.1,20.9,644.9,58.3,945.8,92.8
		c152.8,17.6,299.2,34.4,434.9,47.9h-156.5c-90.1-9.8-183.9-20.6-280.2-31.7c-304.5-35-634.6-72.9-957.2-93.6
		c-31.6,37.7-61,79.4-88.6,125.2h-19c27.2-46.2,56.3-88.2,87.4-126.5c-15.3-1-30.6-1.9-45.8-2.7c-35.3,38.6-68.1,81.5-98.7,129.2
		h-19.3c30.1-48,62.3-91.3,97.1-130.4c-14.8-0.8-29.6-1.6-44.3-2.3c-39.4,39.2-75.8,83.3-109.6,132.7h-19.7
		c33.2-49.6,68.8-94,107.4-133.7c-14.2-0.7-28.4-1.2-42.6-1.8c-43.7,39.7-83.9,84.7-121.1,135.6h-20.2
		c36.4-51,75.6-96.3,118.2-136.5c-13.6-0.5-27.1-0.9-40.6-1.4c-48.3,39.9-92.7,85.6-133.5,137.9h-20.6
		c39.7-52.2,82.9-98.2,129.7-138.6c-12.8-0.4-25.6-0.7-38.3-1c-53.3,39.9-102.1,86.1-146.8,139.6h-21.2
		c43.3-53.3,90.4-99.7,141.8-140.1c-11.9-0.2-23.8-0.4-35.7-0.6c-58.6,39.7-112.1,86.2-160.8,140.6h-21.9
		c46.9-54,98.3-100.7,154.4-140.8c-11-0.1-21.9-0.1-32.8-0.1c-64.2,39.2-122.7,85.8-175.7,141h-22.6
		c50.8-54.6,106.6-101.2,167.7-140.9c-9.8,0-19.6,0.1-29.4,0.2c-70.2,38.6-134,85-191.7,140.7h-23.4
		c54.7-54.8,115.1-101.2,181.3-140.2c-8.5,0.2-16.8,0.4-25.3,0.6c-76.5,37.7-146,83.7-208.5,139.6h-24.5
		c58.7-54.7,123.7-100.5,195.1-138.6c-6.8,0.2-13.6,0.5-20.3,0.7c-83.3,36.5-158.8,81.9-226.3,137.9h-25.5
		c62.6-54.2,132.3-99.1,208.9-136.1l-14.1,0.7c-90.4,35.2-172.3,79.7-245.1,135.4h-26.7c66.5-53.3,140.7-97,222.2-132.6l-6.3,0.4
		c-97.9,33.6-186.5,77-265,132.2h-28.2c67.1-49.7,141.8-90.5,223.7-123.6c-100,31.2-190.9,71.7-271.3,123.6h-29.9
		c62.4-42.6,131.3-78.1,206.1-107.5c-92.1,27.8-176.5,63.1-252,107.5H5135c57.1-35.8,119.6-66.2,186.8-91.8
		c-83.5,24.3-160.7,54.5-230.6,91.8h-34.2c51.6-29.5,107.4-55.1,167-77c-74.9,20.8-144.7,46.3-208.5,77h-36.7
		c45.4-23.6,93.9-44.4,145.4-62.7c-65.5,17.4-127.1,38.2-184,62.7H4900.3z"/>
</g>
</svg>
