<?xml version="1.0" encoding="utf-8"?>
<!-- Generator: Adobe Illustrator 24.3.0, SVG Export Plug-In . SVG Version: 6.00 Build 0)  -->
<svg version="1.1" xmlns="http://www.w3.org/2000/svg" xmlns:xlink="http://www.w3.org/1999/xlink" x="0px" y="0px"
	 viewBox="0 0 500 500" style="enable-background:new 0 0 500 500;" xml:space="preserve">
<style type="text/css">
	.st0{opacity:0.11;fill:#8BCDE5;}
	.st1{opacity:0.67;fill:#8BCDE5;}
	.st2{opacity:0.35;}
	.st3{fill:#8BCDE5;}
	.st4{fill:#FFFFFF;}
	.st5{opacity:0.48;}
	.st6{fill:#4D82A3;}
	.st7{fill:#DC903C;}
	.st8{opacity:0.11;fill:#2B3448;}
	.st9{fill:#74471B;}
	.st10{fill:#5CA28B;}
	.st11{opacity:0.18;}
	.st12{fill:#2B3448;}
	.st13{opacity:0.2;fill:#FFFFFF;}
	.st14{fill:#ECB751;}
	.st15{fill:#DE6C6B;}
	.st16{opacity:0.37;fill:#2B3448;}
	.st17{opacity:0.41;}
	.st18{clip-path:url(#SVGID_2_);fill:#FFFFFF;}
	.st19{opacity:0.1;clip-path:url(#SVGID_2_);fill:#74471B;}
	.st20{opacity:0.22;clip-path:url(#SVGID_2_);}
	.st21{opacity:0.11;fill:#FFFFFF;}
	.st22{opacity:0.1;fill:#2B3448;}
	.st23{opacity:0.1;fill:#74471B;}
	.st24{fill:none;stroke:#2B3448;stroke-miterlimit:10;}
	.st25{opacity:0.26;fill:#DC903C;}
	.st26{clip-path:url(#SVGID_4_);}
	.st27{opacity:0.44;}
	.st28{opacity:0.38;fill:#2B3448;}
	.st29{opacity:0.23;}
	.st30{opacity:0.23;fill:#2B3448;}
	.st31{opacity:0.27;clip-path:url(#SVGID_6_);}
	.st32{opacity:0.54;}
	.st33{clip-path:url(#SVGID_8_);}
	.st34{opacity:0.31;}
	.st35{opacity:0.26;fill:#74471B;}
	.st36{opacity:0.37;clip-path:url(#SVGID_10_);}
	.st37{clip-path:url(#SVGID_12_);fill:#FFFFFF;}
	.st38{opacity:0.1;clip-path:url(#SVGID_12_);fill:#74471B;}
	.st39{opacity:0.4;clip-path:url(#SVGID_12_);}
	.st40{opacity:0.4;}
	.st41{opacity:0.18;fill:#2B3448;}
</style>
<g id="BACKGROUND">
	<rect class="st0" width="500" height="500"/>
</g>
<g id="OBJECTS">
	<g>
		<ellipse class="st1" cx="248.2" cy="390" rx="215.5" ry="36"/>
		<g class="st2">
			<path class="st3" d="M248.2,354C132,354,37.3,369.3,32.8,388.6c-11-20.2-4.4-48.9,14.4-61.6c4.8-3.2,10.2-5.6,14.4-9.5
				c13-12.3,9.6-33.9,12.9-51.9c3.6-19.3,16.6-36.3,33.9-44.4c18.4-8.6,41-7.4,56.9-20.3c14.1-11.5,19.1-31,27.3-47.5
				c18.7-38,57.7-63.5,98.6-68.1c40.9-4.6,82.9,10.5,114.6,37.7c17,14.5,31.6,33,37.7,54.9c9.4,33.2-1.7,68.4-5.4,102.8
				c-0.5,4.7-0.9,9.6,0.6,14c3.4,10.4,14.9,14.9,22.4,22.6c15.3,15.7,12,41.7,7.7,63.5l-5.2,9C463,370,366.8,354,248.2,354z"/>
		</g>
	</g>
	<ellipse class="st1" cx="420.4" cy="391.9" rx="36.4" ry="6.3"/>
	<g>
		<polygon class="st3" points="97.7,111 93,97.3 79.3,93.1 93.4,88.2 97.9,73.9 102.5,87.6 116.3,91.8 101.9,97.1 		"/>
		<polygon class="st3" points="369.8,158.8 365.2,145.2 351.5,140.9 365.6,136 370.1,121.8 374.7,135.4 388.4,139.7 374,144.9 		"/>
		<polygon class="st4" points="411.7,167.7 409.3,160.8 402.3,158.6 409.5,156.1 411.8,148.9 414.2,155.8 421.2,158 413.8,160.6 		
			"/>
		<polygon class="st4" points="92.2,278.6 89.8,271.6 82.8,269.5 90,267 92.3,259.7 94.7,266.7 101.7,268.8 94.3,271.5 		"/>
		<polygon class="st3" points="387.2,184.8 384.9,177.8 377.9,175.6 385.1,173.1 387.3,165.9 389.7,172.8 396.7,175 389.4,177.7 		
			"/>
		<polygon class="st3" points="134.9,153.6 132.6,146.6 125.6,144.4 132.8,142 135,134.7 137.4,141.7 144.4,143.8 137.1,146.5 		"/>
		<path class="st3" d="M118.4,121.4c0,1.1-0.9,2.1-2.1,2.1s-2.1-0.9-2.1-2.1c0-1.1,0.9-2.1,2.1-2.1S118.4,120.2,118.4,121.4z"/>
		<path class="st3" d="M439,219.4c0,1.1-0.9,2.1-2.1,2.1c-1.1,0-2.1-0.9-2.1-2.1c0-1.1,0.9-2.1,2.1-2.1
			C438,217.3,439,218.3,439,219.4z"/>
		<path class="st3" d="M435.3,246.8c0,1.1-0.9,2.1-2.1,2.1c-1.1,0-2.1-0.9-2.1-2.1s0.9-2.1,2.1-2.1
			C434.4,244.7,435.3,245.7,435.3,246.8z"/>
		<path class="st3" d="M411.6,242.1c0,1.1-0.9,2.1-2.1,2.1c-1.1,0-2.1-0.9-2.1-2.1c0-1.1,0.9-2.1,2.1-2.1
			C410.7,240,411.6,240.9,411.6,242.1z"/>
		<path class="st3" d="M84.7,199.2c0,1.1-0.9,2.1-2.1,2.1c-1.1,0-2.1-0.9-2.1-2.1c0-1.1,0.9-2.1,2.1-2.1
			C83.8,197.2,84.7,198.1,84.7,199.2z"/>
		<path class="st3" d="M72.3,184.1c0,1.1-0.9,2.1-2.1,2.1c-1.1,0-2.1-0.9-2.1-2.1c0-1.1,0.9-2.1,2.1-2.1
			C71.4,182,72.3,182.9,72.3,184.1z"/>
		<path class="st3" d="M357.6,107.2c0,1.1-0.9,2.1-2.1,2.1s-2.1-0.9-2.1-2.1s0.9-2.1,2.1-2.1S357.6,106.1,357.6,107.2z"/>
	</g>
	<g>
		<g>
			<g class="st5">
				<path class="st6" d="M138.1,273.9c-10.6-15.3-20.3-31.1-28.7-47.7c-6.7-13.3-12.4-27.1-16.8-41.4c0.3-9.8,0.7-19.7,1-29.5
					c0.4-11.7,0.3-24.8-8-33.1c-2-2-4.9-3.7-7.6-3c-3.2,0.9-4.7,4.6-5.3,7.9c-4,20.4,4.8,41,16.8,58.2c1.4,4.5,2.9,9,4.5,13.4
					c6.4,17.3,14.7,33.9,24.2,49.8c5.3,9,11,17.7,16.9,26.3C135.6,275.5,138.4,274.3,138.1,273.9z"/>
			</g>
			<g class="st5">
				<path class="st6" d="M128.4,266.1c-5-12.8-9.4-25.8-12.7-39.1c-2.6-10.7-4.4-21.6-5.2-32.6c1.9-7,3.8-14,5.6-21.1
					c2.2-8.3,4.3-17.8-0.2-25.2c-1.1-1.8-2.9-3.5-5-3.4c-2.5,0.1-4.1,2.5-5.1,4.8c-6.3,14-3.3,30.3,2.4,44.7c0.2,3.5,0.6,6.9,1,10.4
					c1.7,13.5,5,26.8,9.1,39.8c2.3,7.3,5,14.6,7.8,21.8C126.3,266.9,128.5,266.5,128.4,266.1z"/>
			</g>
			<g class="st5">
				<path class="st6" d="M166.7,268.2c-13.2-3.8-26.2-8.3-38.7-13.9c-10-4.5-19.8-9.7-28.9-15.8c-4.4-5.8-8.8-11.6-13.2-17.3
					c-5.2-6.9-11.5-14.3-20-15.2c-2.1-0.2-4.5,0.1-5.7,1.9c-1.4,2-0.5,4.8,0.6,7c7.2,13.5,21.9,21.2,36.8,25.4
					c2.9,1.9,5.8,3.8,8.8,5.5c11.8,6.9,24.3,12.5,37,17.2c7.2,2.6,14.6,5,22,7.1C166,270.3,167.1,268.3,166.7,268.2z"/>
			</g>
		</g>
		<g>
			<g class="st5">
				<path class="st6" d="M339.9,296.9c12.3-10.5,24.1-21.6,34.8-33.6c8.6-9.7,16.5-20,23.4-31c1.9-8.3,3.9-16.7,5.8-25
					c2.3-9.9,5.4-20.9,14.2-26c2.2-1.2,4.9-2,7.1-0.8c2.5,1.5,2.9,4.9,2.7,7.8c-1.2,18-13.3,33.3-27.2,45.1
					c-2.2,3.5-4.4,6.9-6.8,10.2c-9.3,13.1-20,25.1-31.5,36.3c-6.5,6.3-13.2,12.4-20.2,18.3C341.7,298.8,339.6,297.2,339.9,296.9z"/>
			</g>
			<g class="st5">
				<path class="st6" d="M349.8,292.5c7.1-9.6,13.7-19.5,19.4-30c4.6-8.4,8.6-17.1,11.7-26.2c0-6.3,0-12.6,0-19
					c0-7.5,0.4-15.9,5.9-21.1c1.3-1.3,3.2-2.3,5-1.7c2.1,0.6,2.9,3.1,3.2,5.2c2.1,13.1-4,26.2-12,37c-1,2.9-2,5.7-3.2,8.5
					c-4.5,11-10.2,21.4-16.6,31.4c-3.6,5.6-7.5,11.1-11.4,16.5C351.4,293.6,349.7,292.8,349.8,292.5z"/>
			</g>
			<g class="st5">
				<path class="st6" d="M317.2,285.6c11.9-0.2,23.8-1.1,35.6-3c9.4-1.5,18.8-3.7,27.9-6.8c5-3.9,10-7.7,15-11.6
					c5.9-4.6,12.8-9.4,20.2-8.3c1.8,0.3,3.8,1.1,4.4,2.9c0.7,2-0.6,4.2-2.1,5.7c-9.1,9.7-23.1,12.8-36.6,13.1
					c-2.9,1-5.7,1.9-8.6,2.7c-11.4,3.1-23.2,5-35,6.1c-6.7,0.6-13.4,0.9-20.1,1.1C317.3,287.6,316.9,285.6,317.2,285.6z"/>
			</g>
		</g>
	</g>
	<g>
		<path class="st7" d="M456,358.3c0-2.6-0.3-5-0.9-7.4h-0.5c-1-4.4-14.3-7.9-30.6-7.9c-17,0-30.7,3.8-30.7,8.5c0,0.1,0,0.3,0,0.4
			c-0.4,2.1-0.7,4.2-0.7,6.4c0,12.9,7.7,24,18.8,28.9c-2.7,0.7-4.3,1.7-4.3,2.7c0,2.3,7.7,4.1,17.2,4.1c9.5,0,17.2-1.9,17.2-4.1
			c0-1.1-1.6-2-4.3-2.7C448.2,382.3,456,371.2,456,358.3z"/>
		<path class="st8" d="M456,358.3c0-2.6-0.3-5-0.9-7.4h-0.5c-0.3-1.5-2-2.8-4.7-4c1.6,2.5,2.7,5.3,2.9,8.6c0.6,8.3-4.2,17-11.1,21.4
			c-6.9,4.5-15.8,4.8-23.6,2.8c-11.4-2.9-21.4-11-25.5-21.4c0,0,0,0,0,0c0,12.9,7.7,24,18.8,28.9c-2.7,0.7-4.3,1.7-4.3,2.7
			c0,2.3,7.7,4.1,17.2,4.1c9.5,0,17.2-1.9,17.2-4.1c0-1.1-1.6-2-4.3-2.7C448.2,382.3,456,371.2,456,358.3z"/>
		<ellipse class="st9" cx="423.9" cy="351.4" rx="24.9" ry="6.9"/>
		<g>
			<g>
				<path class="st10" d="M424.1,354.8c-4.8-3-9.7-6-13.3-10.3c-3.6-4.3-5.9-10.2-4.6-15.6c0.6-2.7,2.1-5.2,2-8
					c-0.1-5.8-6.4-9.2-9.9-13.9c-4.2-5.6-4.2-13.2-4-20.2c2.6,7.7,11.3,10.9,17.5,16.1c6.8,5.7,10.7,14.4,12.4,23.2
					c1.7,8.8,1.3,17.8,0.9,26.7L424.1,354.8z"/>
			</g>
			<g class="st11">
				<path class="st12" d="M417,317.3c-4.7-11.8-16.2-18.5-22.7-28.7c-0.1,6.5,0.2,13.2,4,18.4c3.5,4.7,9.8,8.1,9.9,13.9
					c0.1,2.8-1.4,5.3-2,8c-1.3,5.5,1,11.3,4.6,15.6c2.9,3.4,6.5,6,10.2,8.4C421.8,340.7,421.4,328.5,417,317.3z"/>
			</g>
			<g>
				<path class="st10" d="M424.1,354.8c-6.3-7.6-7.9-18.7-4.1-27.8c2.6-6.2,7.7-11.7,8.3-18.4c0.3-3.4-0.5-6.7-0.6-10.1
					c-0.1-4.7,1.2-9.4,3.7-13.3c-1.3,13.9,8.5,26.7,8.5,40.6C440,336.5,424.1,354.8,424.1,354.8z"/>
			</g>
			<g class="st11">
				<path class="st12" d="M431.6,302.4c0.3,10.9-1.3,21.2-3.8,31.7c-1.4,5.7-1.8,10.7-0.9,15.7c7.9-5.3,13.1-14.6,13.1-24.2
					c0-11.8-7-22.7-8.4-34.2C431.3,295.2,431.5,298.9,431.6,302.4z"/>
			</g>
			<g>
				<g>
					<path class="st10" d="M424,354.7c0.1-8.9,0.5-18.8,6.6-25.3c5.1-5.5,13.5-7.5,17.7-13.7c3.7-5.4,3.2-12.5,4.7-18.8
						c1.5-6.5,5.3-12.4,10.5-16.6c0.6,6.5,1.2,13,1.7,19.5c0.7,7.8,1.4,15.8-1,23.2c-2.5,7.9-8.3,14.3-15.1,19.1
						c-6.7,4.8-14.4,8.1-21.9,11.4L424,354.7z"/>
				</g>
				<g class="st11">
					<path class="st12" d="M463.9,285.9c-2.4,6.5-3.5,13.6-5.7,20.1c-3.3,10-8.8,18.3-16,25.9c-6.4,6.8-11.4,12.2-13.5,20.8
						c7-3,14.1-6.2,20.3-10.7c6.7-4.8,12.5-11.3,15.1-19.1c2.4-7.4,1.7-15.4,1-23.2C464.7,295.2,464.3,290.5,463.9,285.9z"/>
				</g>
			</g>
		</g>
	</g>
	<path class="st3" d="M105.2,361.1l-21.7,7.1c0,0,169.3,49.1,177.2,52.2c7.9,3.2,131.4-39.6,131.4-39.6l-34.8-11.1L105.2,361.1"/>
	<g>
		<path class="st12" d="M170.5,404.1L65,379.3c-3-0.7-6.1,1.2-6.8,4.2l0,0c-0.7,3,1.2,6.1,4.2,6.8l105.5,24.8L170.5,404.1z"/>
		<path class="st13" d="M58.1,385.9c0.4,2.1,2,4,4.3,4.5l105.5,24.8l0.8-3.3L58.1,385.9z"/>
		
			<rect x="69.1" y="386.1" transform="matrix(0.2288 -0.9735 0.9735 0.2288 -319.5237 371.7758)" class="st14" width="11.7" height="3"/>
		
			<rect x="117" y="397.3" transform="matrix(0.2288 -0.9735 0.9735 0.2288 -293.5323 427.1194)" class="st14" width="11.7" height="3"/>
		
			<rect x="87.8" y="371.4" transform="matrix(0.2288 -0.9735 0.9735 0.2288 -310.0575 385.8983)" class="st14" width="1.5" height="34.6"/>
		<polygon class="st14" points="167.9,415.2 178,413.5 178.9,409.9 170.5,404.1 		"/>
	</g>
	<g>
		<path class="st15" d="M380.4,378.3l-8.6-4c-11-6-4-41.9-4-41.9l-98.2,28.4l-166.3-41.4c-5.5,20.8-1,48.2-1,48.2l153.8,42l0,0.2
			l13.5,3.5C384.3,379.8,380.4,378.3,380.4,378.3z"/>
		<polygon class="st15" points="271.8,361.5 382.1,328.6 215.9,293.2 103.3,319.4 		"/>
		<path class="st16" d="M105.7,366.2c-0.8-3.3-1.3-6.7-1.7-10.1c-0.4-3.4-0.5-6.8-0.4-10.3c0.1-3.4,0.4-6.8,1-10.2
			c0.6-3.4,1.6-6.7,2.9-9.8c-0.4,1.7-1,3.3-1.2,4.9c-0.4,1.6-0.6,3.3-0.9,5c-0.4,3.4-0.7,6.7-0.8,10.1c-0.1,3.4,0,6.8,0.1,10.2
			c0.1,1.7,0.2,3.4,0.4,5.1C105.3,362.8,105.5,364.5,105.7,366.2z"/>
		<path class="st16" d="M261,407.9c-0.8-3.3-1.3-6.7-1.7-10.1c-0.4-3.4-0.5-6.8-0.4-10.3c0.1-3.4,0.4-6.8,1-10.2
			c0.6-3.4,1.6-6.7,2.9-9.8c-0.4,1.7-1,3.3-1.2,4.9c-0.4,1.6-0.6,3.3-0.9,5c-0.4,3.4-0.7,6.7-0.8,10.1c-0.1,3.4,0,6.8,0.1,10.2
			c0.1,1.7,0.2,3.4,0.4,5.1C260.6,404.5,260.8,406.2,261,407.9z"/>
		<path class="st16" d="M112.6,324.9c12,3,24,6,35.9,9.1l35.9,9.4l35.8,9.6l17.9,4.9l17.8,5l-18-4.5l-18-4.6l-35.9-9.4l-35.8-9.6
			C136.4,331.5,124.5,328.3,112.6,324.9z"/>
		<g class="st17">
			<g>
				<path class="st4" d="M143.5,375.9l-33-9.6l1.9-37.7l32.4,8.6L143.5,375.9z M111.6,365.9l30.7,9l1.3-37.4l-30.2-8L111.6,365.9z"
					/>
			</g>
			<g>
				<path class="st4" d="M127.6,352.5l-15.3-13.9l16.2-5.3l15.7,13.9L127.6,352.5z M113.8,339l13.9,12.6l14.9-4.7l-14.2-12.6
					L113.8,339z"/>
			</g>
			<g>
				<path class="st4" d="M126.6,362.5l-15.4-14.1l16.2-5.2l15.8,14.2L126.6,362.5z M112.7,348.8l13.9,12.8l15-4.7l-14.2-12.8
					L112.7,348.8z"/>
			</g>
			<g>
				<path class="st4" d="M126.3,370.8l-15.4-14.3l16.3-5.2l15.8,14.4L126.3,370.8z M112.4,356.9l14,12.9l15-4.7l-14.3-13
					L112.4,356.9z"/>
			</g>
		</g>
		<g class="st17">
			<g>
				<path class="st4" d="M179.8,386.4l-33-9.6l1.9-37.7l32.4,8.6L179.8,386.4z M148,376.4l30.7,9L180,348l-30.2-8L148,376.4z"/>
			</g>
			<g>
				<path class="st4" d="M163.9,363l-15.3-13.9l16.2-5.3l15.7,13.9L163.9,363z M150.1,349.5l13.9,12.6l14.9-4.7l-14.2-12.6
					L150.1,349.5z"/>
			</g>
			<g>
				<path class="st4" d="M163,373l-15.4-14.1l16.2-5.2l15.8,14.2L163,373z M149.1,359.3l13.9,12.8l15-4.7l-14.2-12.8L149.1,359.3z"
					/>
			</g>
			<g>
				<path class="st4" d="M162.6,381.3l-15.4-14.3l16.3-5.2l15.8,14.4L162.6,381.3z M148.7,367.4l14,12.9l15-4.7l-14.3-13
					L148.7,367.4z"/>
			</g>
		</g>
		<g class="st17">
			<g>
				<path class="st4" d="M217.2,396.9l-33-9.6l1.9-37.7l32.4,8.6L217.2,396.9z M185.4,386.9l30.7,9l1.3-37.4l-30.2-8L185.4,386.9z"
					/>
			</g>
			<g>
				<path class="st4" d="M201.3,373.5L186,359.6l16.2-5.3l15.7,13.9L201.3,373.5z M187.5,360l13.9,12.6l14.9-4.7l-14.2-12.6
					L187.5,360z"/>
			</g>
			<g>
				<path class="st4" d="M200.4,383.5L185,369.4l16.2-5.2l15.8,14.2L200.4,383.5z M186.5,369.8l13.9,12.8l15-4.7l-14.2-12.8
					L186.5,369.8z"/>
			</g>
			<g>
				<path class="st4" d="M200,391.8l-15.4-14.3l16.3-5.2l15.8,14.4L200,391.8z M186.1,377.9l14,12.9l15-4.7l-14.3-13L186.1,377.9z"
					/>
			</g>
		</g>
		<g class="st17">
			<g>
				<path class="st4" d="M254.6,406.9l-33-9.6l1.9-37.7l32.4,8.6L254.6,406.9z M222.8,396.9l30.7,9l1.3-37.4l-30.2-8L222.8,396.9z"
					/>
			</g>
			<g>
				<path class="st4" d="M238.8,383.5l-15.3-13.9l16.2-5.3l15.7,13.9L238.8,383.5z M224.9,370l13.9,12.6l14.9-4.7l-14.2-12.6
					L224.9,370z"/>
			</g>
			<g>
				<path class="st4" d="M237.8,393.5l-15.4-14.1l16.2-5.2l15.8,14.2L237.8,393.5z M223.9,379.8l13.9,12.8l15-4.7l-14.2-12.8
					L223.9,379.8z"/>
			</g>
			<g>
				<path class="st4" d="M237.4,401.7L222,387.4l16.3-5.2l15.8,14.4L237.4,401.7z M223.5,387.9l14,12.9l15-4.7l-14.3-13L223.5,387.9
					z"/>
			</g>
		</g>
		<g>
			<defs>
				<path id="SVGID_1_" d="M272.7,359.8c0,0-13,26.2-4.1,50.8L375.7,376c0,0-9-16.9-0.6-37.6L272.7,359.8z"/>
			</defs>
			<clipPath id="SVGID_2_">
				<use xlink:href="#SVGID_1_"  style="overflow:visible;"/>
			</clipPath>
			<path class="st18" d="M272.7,359.8c0,0-13,26.2-4.1,50.8L375.7,376c0,0-7-23.6,1.5-44.4L272.7,359.8z"/>
			<path class="st19" d="M354.4,378.8c-14.8,5.7-29.5,10.1-45.4,11.3c-15.7,1.2-31.8-2.7-41.4-15.6c-2.4,9.8-3.7,23.1,1,36.1
				L375.7,376c0,0-0.5-1.8-1.1-4.9C367.8,373.6,361.1,376.3,354.4,378.8z"/>
			<g class="st20">
				<g>
					
						<rect x="261.5" y="356.6" transform="matrix(0.9764 -0.2159 0.2159 0.9764 -69.5162 77.7291)" class="st9" width="119" height="0.8"/>
				</g>
				<g>
					
						<rect x="261.7" y="364" transform="matrix(0.9727 -0.2319 0.2319 0.9727 -75.7455 84.4105)" class="st9" width="119" height="0.8"/>
				</g>
				<g>
					
						<rect x="260.7" y="372.5" transform="matrix(0.9727 -0.2319 0.2319 0.9727 -77.7476 84.4136)" class="st9" width="119" height="0.8"/>
				</g>
				<g>
					
						<rect x="260.2" y="379.1" transform="matrix(0.9689 -0.2473 0.2473 0.9689 -83.9428 90.8751)" class="st9" width="119" height="0.8"/>
				</g>
				<g>
					
						<rect x="261.1" y="387.3" transform="matrix(0.9603 -0.279 0.279 0.9603 -95.44 104.852)" class="st9" width="119" height="0.8"/>
				</g>
			</g>
		</g>
		<path class="st21" d="M266.3,364.7l-163.5-42.6c0,0-2.6,11-1.1,17.3l163.5,43.6l4.7-17.9L266.3,364.7z"/>
		<path class="st22" d="M102.3,367.6l167.2,45.6c0,0-3.7-15.5-3.7-17.1l-164-41.5C101.8,354.7,100.8,364.8,102.3,367.6z"/>
	</g>
	<g>
		<path class="st14" d="M133.1,278.6c0,0-3,18.5-0.5,30.4c0,0,103.8,56.4,111.3,58.4c7.5,2,150.7-25.5,150.7-25.5l-19-4.5l-0.9-33.8
			l17.4-3.2l-120.8-48.4L133.1,278.6z"/>
		<path class="st4" d="M380.6,302.5L245.9,324c0,0-7.8,24.8,0,38.4L384.4,339C384.4,339,381.1,321.5,380.6,302.5z"/>
		<path class="st23" d="M312.5,347.2c-23.3,0.9-48.8,0.1-69.4-10.4c-1.1,8.1-1.4,18.4,2.8,25.6L384.4,339c0,0-0.1-0.3-0.1-0.8
			C360.6,342.9,336.6,346.3,312.5,347.2z"/>
		<g class="st2">
			<g>
				<polygon class="st24" points="144.1,285.2 138.2,282.9 135.3,295.1 138,309.5 143.7,312.5 146.9,300.4 				"/>
				<polygon class="st12" points="142.4,292.2 139.7,291.1 138.4,296.5 139.6,303 142.2,304.3 143.6,298.9 				"/>
				<polygon class="st24" points="147,314.2 135.2,308 135.4,281.5 147.5,286.3 				"/>
			</g>
			<g>
				<polygon class="st24" points="180.5,299.5 172.5,296.3 168,310.1 171.1,326.8 178.9,330.8 183.8,317.3 				"/>
				<polygon class="st12" points="177.8,307.4 174.3,305.9 172.2,312 173.6,319.6 177.1,321.2 179.3,315.2 				"/>
				<polygon class="st24" points="183.4,333.2 167.4,324.8 168.6,294.5 185.2,301 				"/>
			</g>
			<g>
				<polygon class="st24" points="231.8,319.6 220.2,315.1 213.2,330.7 216.9,350.6 227.9,356.4 235.8,341.1 				"/>
				<polygon class="st12" points="227.4,328.7 222.4,326.5 219.1,333.5 220.8,342.5 225.8,344.9 229.2,338.1 				"/>
				<polygon class="st24" points="234.3,359.7 211.6,347.9 214.7,312.6 238.6,322 				"/>
			</g>
			<polygon class="st12" points="157.9,320 155.3,318.7 156.1,289.6 158.8,290.7 			"/>
			<polygon class="st12" points="197.5,340.6 194.1,338.9 196.4,305.4 199.9,306.8 			"/>
		</g>
		<path class="st21" d="M133.1,278.6L245.9,324c0,0-3.6,13.7-3.3,17l-110.7-51.4C131.9,289.5,132.5,279.8,133.1,278.6z"/>
		<path class="st25" d="M132.6,309l111.3,58.4c0,0-4.6-6.8-4.3-18.9l-107.7-49.3C131.9,299.2,132,307.8,132.6,309z"/>
		<g>
			<defs>
				<path id="SVGID_3_" d="M380.6,302.5L245.9,324c0,0-7.8,24.8,0,38.4L384.4,339C384.4,339,381.1,321.5,380.6,302.5z"/>
			</defs>
			<clipPath id="SVGID_4_">
				<use xlink:href="#SVGID_3_"  style="overflow:visible;"/>
			</clipPath>
			<g class="st26">
				<g class="st27">
					
						<rect x="239" y="318.8" transform="matrix(0.9865 -0.1637 0.1637 0.9865 -48.0143 55.3937)" class="st9" width="146.2" height="0.5"/>
				</g>
				<g class="st27">
					
						<rect x="239.5" y="324.8" transform="matrix(0.9865 -0.1637 0.1637 0.9865 -48.9897 55.5543)" class="st9" width="146.2" height="0.5"/>
				</g>
				<g class="st27">
					
						<rect x="239" y="331.4" transform="matrix(0.9865 -0.1637 0.1637 0.9865 -50.0823 55.5526)" class="st9" width="146.2" height="0.5"/>
				</g>
				<g class="st27">
					
						<rect x="239.2" y="338" transform="matrix(0.9865 -0.1639 0.1639 0.9865 -51.2144 55.7554)" class="st9" width="146.2" height="0.5"/>
				</g>
				<g class="st27">
					
						<rect x="239.5" y="345.2" transform="matrix(0.9865 -0.1639 0.1639 0.9865 -52.4056 55.9114)" class="st9" width="146.2" height="0.5"/>
				</g>
			</g>
		</g>
	</g>
	<g>
		<path class="st10" d="M115.6,224.7c0,0-11,22-0.5,46.9l147.7,45.9l111.8-30.7l-9.4-2.4l-2.1-41.9l10.5-2.9l-139.7-41.9
			L115.6,224.7z"/>
		<path class="st4" d="M365,242.1l-104.6,22.1c0,0-16,29.9,4.5,48.4l101.3-27.9L365,242.1z"/>
		<path class="st23" d="M321.4,251.6c3.8,0,7.6-0.1,11.4-0.4c1.7-0.1,3.4-0.3,5.1-0.5c0.3,0,0.5-0.1,0.7-0.1
			c0.4-0.1,0.8-0.1,1.2-0.2c6.4-1.1,12.8-2.4,19.1-4.1c2.1-0.5,4.1-1.1,6.1-1.7l-0.1-2.5l-44.9,9.5
			C320.5,251.5,321,251.6,321.4,251.6z"/>
		<path class="st23" d="M319.3,288.7c-15-0.1-29.9-1.7-44.9-2.7c-6.7-0.5-13.3-1.1-19.8-2.5c-1,9.4,0.7,20.5,10.2,29l101.3-27.9
			l-0.1-2.1C350.9,286.3,335.4,288.9,319.3,288.7z"/>
		<path class="st28" d="M117.1,269.3c-1.6-3.3-2.5-6.8-3.1-10.4c-0.6-3.6-0.9-7.2-0.8-10.9c0-0.9,0.1-1.8,0.1-2.7l0.1-1.4l0.2-1.4
			l0.3-2.7l0.5-2.7c0.3-1.8,0.8-3.5,1.3-5.3c0.5-1.7,1.1-3.4,1.7-5.1c-0.9,3.5-1.7,7-2.2,10.6l-0.4,2.7l-0.3,2.7l-0.1,1.3l-0.1,1.3
			c0,0.9-0.1,1.8-0.1,2.7c-0.1,3.6,0.1,7.2,0.5,10.7c0.2,1.8,0.5,3.6,0.9,5.3C116.1,265.9,116.5,267.6,117.1,269.3z"/>
		<path class="st28" d="M251.8,310.4c-1.6-3.3-2.5-6.8-3.1-10.4c-0.6-3.6-0.9-7.2-0.8-10.9c0-0.9,0.1-1.8,0.1-2.7l0.1-1.4l0.2-1.4
			l0.3-2.7l0.5-2.7c0.3-1.8,0.8-3.5,1.3-5.3c0.5-1.7,1.1-3.4,1.7-5.1c-0.9,3.5-1.7,7-2.2,10.6l-0.4,2.7l-0.3,2.7l-0.1,1.3l-0.1,1.3
			c0,0.9-0.1,1.8-0.1,2.7c-0.1,3.6,0.1,7.2,0.5,10.7c0.2,1.8,0.5,3.6,0.9,5.3C250.7,306.9,251.2,308.7,251.8,310.4z"/>
		<g class="st29">
			<polygon class="st12" points="129.5,259.3 150.4,262.8 132.1,248.5 122.1,249.8 			"/>
			<polygon class="st12" points="132.4,247.8 152.2,263.3 139.4,239.6 128.9,235.2 			"/>
			<polygon class="st12" points="129.4,260.4 151.7,263.7 131.9,271.2 122.5,266.9 			"/>
		</g>
		<path class="st30" d="M161.5,241.7c0,0-9.2,21.6-3.2,42.4l23.2,8c0,0-5.2-34.8,5.2-42.8L161.5,241.7z"/>
		<path class="st30" d="M213.1,257.3c0,0-9.6,23.6-3.2,43.2l7.2,2.8c0,0-2-32.8,5.2-43.6L213.1,257.3z"/>
		<g>
			<defs>
				<path id="SVGID_5_" d="M365,242.1l-104.6,22.1c0,0-16,29.9,4.5,48.4l101.3-27.9L365,242.1z"/>
			</defs>
			<clipPath id="SVGID_6_">
				<use xlink:href="#SVGID_5_"  style="overflow:visible;"/>
			</clipPath>
			<g class="st31">
				<g>
					
						<rect x="254.2" y="255.4" transform="matrix(0.9774 -0.2112 0.2112 0.9774 -46.8788 72.4524)" class="st9" width="122.9" height="0.5"/>
				</g>
				<g>
					
						<rect x="252.4" y="261.6" transform="matrix(0.9759 -0.2184 0.2184 0.9759 -49.6231 74.8602)" class="st9" width="122.9" height="0.5"/>
				</g>
				<g>
					
						<rect x="251.1" y="267.8" transform="matrix(0.9722 -0.2343 0.2343 0.9722 -54.1158 80.7046)" class="st9" width="122.9" height="0.5"/>
				</g>
				<g>
					
						<rect x="250.6" y="273.7" transform="matrix(0.9722 -0.2343 0.2343 0.9722 -55.4959 80.7315)" class="st9" width="122.9" height="0.5"/>
				</g>
				<g>
					
						<rect x="250.8" y="279.5" transform="matrix(0.9722 -0.2343 0.2343 0.9722 -56.8583 80.9296)" class="st9" width="122.9" height="0.5"/>
				</g>
				<g>
					
						<rect x="251.6" y="285" transform="matrix(0.9722 -0.2343 0.2343 0.9722 -58.1172 81.2762)" class="st9" width="122.9" height="0.5"/>
				</g>
				<g>
					<polygon class="st9" points="258.6,310.2 258.5,309.7 377.5,279.2 377.6,279.7 					"/>
				</g>
				<g>
					
						<rect x="254.1" y="289.7" transform="matrix(0.9722 -0.2342 0.2342 0.9722 -59.1484 81.9839)" class="st9" width="122.9" height="0.5"/>
				</g>
			</g>
		</g>
		<path class="st21" d="M115.6,224.7l144.7,39.4c0,0-5.7,14-6.5,20.8l-143.1-44C110.7,240.9,113,227.3,115.6,224.7z"/>
		<path class="st22" d="M113.9,271.3l148.9,46.2c0,0-8.3-3.2-11-17.8l-141.1-42.8C110.7,256.9,112.7,268.9,113.9,271.3z"/>
	</g>
	<g>
		<path class="st12" d="M127.1,175.8c0,0-3.5,29.9-0.5,37.9l111.3,45.4l134.2-23.5l-13.5-3l-1.6-32.3l11.8-1.3l-134-39.3
			L127.1,175.8z"/>
		<path class="st4" d="M360.7,200.2l-119.3,15.5c0,0-14,26.4,3.5,37.4l116.8-19C361.7,234.2,360.7,198.7,360.7,200.2z"/>
		<path class="st23" d="M313.8,240.4c-14.6-0.1-29.5-1.3-44-2.6c-8.7-0.8-17.6-1.7-25.5-5.8c-2.6-1.3-4.8-3-7-4.8
			c-2,8.5-2.2,19.7,7.7,25.9l79.7-12.9C321,240.3,317.4,240.4,313.8,240.4z"/>
		<g class="st32">
			<path class="st14" d="M136.1,198.9c0,0.3-0.4,0.4-0.9,0.2c-0.5-0.2-0.9-0.6-0.9-0.9c0-0.3,0.4-0.4,0.9-0.2
				C135.8,198.1,136.2,198.5,136.1,198.9z"/>
			<path class="st14" d="M150.5,194.9c0,0.3-0.5,0.5-1,0.3c-0.5-0.2-1-0.6-0.9-1c0-0.3,0.5-0.5,1-0.3
				C150.1,194.1,150.5,194.6,150.5,194.9z"/>
			<path class="st14" d="M149.5,213.5c0,0.3-0.5,0.4-1,0.2c-0.5-0.2-0.9-0.7-0.9-1c0-0.3,0.5-0.4,1-0.2
				C149.1,212.7,149.5,213.2,149.5,213.5z"/>
			<path class="st14" d="M164.7,210c0,0.3-0.5,0.4-1.1,0.2c-0.6-0.2-1-0.7-1-1c0-0.3,0.5-0.4,1.1-0.2
				C164.3,209.2,164.7,209.6,164.7,210z"/>
			<path class="st14" d="M131.4,181.8l-0.7,15l-0.1,0.1l0.1,0.2l-0.6,14.2l38.3,16.2l2.1-32L131.4,181.8z M151,189.9l7.4,9.7
				l-8.7,3.5l0.3-5.6l-1.1-0.4l-0.3,5.5l-7.1-8.8L151,189.9z M140.8,192.9l-7.9-9.8l17.3,6L140.8,192.9z M151.9,189.7l16.7,5.8
				l-9.4,3.7L151.9,189.7z M150.2,204l8.9-3.5l8.7,11.3l-9.2,3l-8-9.9l9.8,3.8l0-0.7L150.2,204z M148.2,203.2l-10.1-3.9l0,0.7
				l9.8,3.8l-8.1,3.2l-7.8-9.6l8.8-3.5L148.2,203.2z M148.5,204.7l-0.3,6.3l1.1,0.5l0.4-6.5l8.1,10.1l-9.1,2.9l-8.2-10.1
				L148.5,204.7z M147.8,218.1l-16.1-6.8l8-3.2L147.8,218.1z M158.5,215.9l8.1,10.1l-17.1-7.2L158.5,215.9z M159.3,215.7l8.8-2.8
				l-0.8,12.7L159.3,215.7z M159.9,200.2l9.3-3.7l-1,14.5L159.9,200.2z M132.4,183.6l7.7,9.6l-8.3,3.3L132.4,183.6z M139.1,207.3
				l-7.9,3.1l0.5-12.1L139.1,207.3z"/>
		</g>
		<g class="st32">
			<path class="st14" d="M193.5,219.7c0,0.3-0.4,0.4-0.9,0.2c-0.5-0.2-0.9-0.6-0.9-0.9c0-0.3,0.4-0.4,0.9-0.2
				C193.1,219,193.5,219.4,193.5,219.7z"/>
			<path class="st14" d="M207.8,215.8c0,0.3-0.5,0.5-1,0.3c-0.5-0.2-1-0.6-0.9-1c0-0.3,0.5-0.5,1-0.3
				C207.4,215,207.8,215.4,207.8,215.8z"/>
			<path class="st14" d="M206.8,234.3c0,0.3-0.5,0.4-1,0.2c-0.5-0.2-0.9-0.7-0.9-1c0-0.3,0.5-0.4,1-0.2
				C206.4,233.6,206.8,234,206.8,234.3z"/>
			<path class="st14" d="M222,230.8c0,0.3-0.5,0.4-1.1,0.2c-0.6-0.2-1-0.7-1-1c0-0.3,0.5-0.4,1.1-0.2C221.6,230,222,230.5,222,230.8
				z"/>
			<path class="st14" d="M188.7,202.7l-0.7,15l-0.1,0.1l0.1,0.2l-0.6,14.2l38.3,16.2l2.1-32L188.7,202.7z M208.4,210.8l7.4,9.7
				l-8.7,3.5l0.3-5.6l-1.1-0.4l-0.3,5.5l-7.1-8.8L208.4,210.8z M198.2,213.7l-7.9-9.8l17.3,6L198.2,213.7z M209.2,210.6l16.7,5.8
				l-9.4,3.7L209.2,210.6z M207.5,224.8l8.9-3.5l8.7,11.3l-9.2,3l-8-9.9l9.8,3.8l0-0.7L207.5,224.8z M205.6,224.1l-10.1-3.9l0,0.7
				l9.8,3.8l-8.1,3.2l-7.8-9.6l8.8-3.5L205.6,224.1z M205.8,225.5l-0.3,6.3l1.1,0.5l0.4-6.5l8.1,10.1l-9.1,2.9l-8.2-10.1
				L205.8,225.5z M205.1,238.9l-16.1-6.8l8-3.2L205.1,238.9z M215.8,236.8l8.1,10.1l-17.1-7.2L215.8,236.8z M216.6,236.5l8.8-2.8
				l-0.8,12.7L216.6,236.5z M217.2,221l9.3-3.7l-1,14.5L217.2,221z M189.7,204.4l7.7,9.6l-8.3,3.3L189.7,204.4z M196.4,228.2
				l-7.9,3.1l0.5-12.1L196.4,228.2z"/>
		</g>
		<g>
			<defs>
				<path id="SVGID_7_" d="M360.7,200.2l-119.3,15.5c0,0-14,26.4,3.5,37.4l116.8-19C361.7,234.2,360.7,198.7,360.7,200.2z"/>
			</defs>
			<clipPath id="SVGID_8_">
				<use xlink:href="#SVGID_7_"  style="overflow:visible;"/>
			</clipPath>
			<g class="st33">
				<g class="st34">
					
						<rect x="233.7" y="222" transform="matrix(0.9911 -0.1328 0.1328 0.9911 -26.8338 42.0497)" class="st9" width="136.4" height="0.5"/>
				</g>
				<g class="st34">
					
						<rect x="233.7" y="230.4" transform="matrix(0.9911 -0.1328 0.1328 0.9911 -27.9559 42.1245)" class="st9" width="136.4" height="0.5"/>
				</g>
				<g class="st34">
					<polygon class="st9" points="234.4,249.1 234.3,248.6 369.3,229.1 369.4,229.6 					"/>
				</g>
				<g class="st34">
					
						<rect x="233.7" y="213.5" transform="matrix(0.9931 -0.1172 0.1172 0.9931 -22.9759 36.8565)" class="st9" width="136.4" height="0.5"/>
				</g>
			</g>
		</g>
		<path class="st14" d="M266.9,217.7c0,0,15.2,22.5,11.8,50.7l7.3-6.2l5.6,5.6c0,0,0.6-38.3-9.6-51.3L266.9,217.7z"/>
		<path class="st21" d="M127.1,175.8c0,0,111.6,35.7,111.6,37.4c0,1.7-7.3,13.5-5.6,24.8l-107-42.3L127.1,175.8z"/>
	</g>
	<g>
		<rect x="153.9" y="173.6" class="st7" width="203.1" height="32.4"/>
		<rect x="153.9" y="199.1" class="st8" width="203.1" height="6.9"/>
		<rect x="153.9" y="173.6" class="st21" width="203.1" height="12"/>
		<rect x="165" y="173.6" class="st35" width="17.9" height="32.4"/>
		<rect x="195.6" y="173.6" class="st35" width="3" height="32.4"/>
		<rect x="211.3" y="173.6" class="st35" width="101.6" height="32.4"/>
		<rect x="325.7" y="173.6" class="st35" width="12.6" height="32.4"/>
		<polygon class="st7" points="153.9,173.6 152.5,148.2 339.1,146.7 357.1,173.6 		"/>
	</g>
	<g>
		<g>
			<polygon class="st15" points="163.4,130.7 163.4,159.7 292.2,173.6 341.1,158.2 334.6,155.7 335.1,132.2 340.1,130.2 
				219.8,119.2 			"/>
			<polygon class="st4" points="337.6,131.1 291.7,143.7 291.7,167.6 291.7,170.6 336.9,156.3 			"/>
			<g>
				<g>
					
						<rect x="224.7" y="85.8" transform="matrix(0.1131 -0.9936 0.9936 0.1131 57.6168 350.677)" class="st14" width="1.1" height="114.5"/>
				</g>
				<g>
					
						<rect x="224.2" y="92.6" transform="matrix(0.1131 -0.9936 0.9936 0.1131 50.4005 356.1143)" class="st14" width="1.1" height="114.5"/>
				</g>
				<g>
					
						<rect x="224.2" y="99.3" transform="matrix(0.1131 -0.9936 0.9936 0.1131 43.6831 362.1102)" class="st14" width="1.1" height="114.5"/>
				</g>
				<g>
					
						<rect x="224.2" y="105.5" transform="matrix(0.1131 -0.9936 0.9936 0.1131 37.5253 367.6066)" class="st14" width="1.1" height="114.5"/>
				</g>
			</g>
			<g>
				<defs>
					<polygon id="SVGID_9_" points="337.6,131.1 291.7,143.7 291.7,167.6 291.7,170.6 336.9,156.3 					"/>
				</defs>
				<clipPath id="SVGID_10_">
					<use xlink:href="#SVGID_9_"  style="overflow:visible;"/>
				</clipPath>
				<g class="st36">
					<polygon class="st9" points="289.1,147.9 288.9,147.4 344,132.6 344.1,133.1 					"/>
				</g>
				<g class="st36">
					<polygon class="st9" points="289.6,154.7 289.5,154.1 344.5,139.4 344.7,139.9 					"/>
				</g>
				<g class="st36">
					<polygon class="st9" points="289.7,160.6 289.6,160.1 344.6,145.3 344.8,145.9 					"/>
				</g>
				<g class="st36">
					<polygon class="st9" points="290.3,166.8 290.2,166.3 345.2,151.5 345.3,152.1 					"/>
				</g>
			</g>
			<polygon class="st22" points="163.4,159.7 292.2,173.6 291.7,161.9 163.8,149 			"/>
			<polygon class="st21" points="163.4,130.7 291.7,143.7 291.7,150.7 163.8,139.4 			"/>
		</g>
		<path class="st23" d="M291.7,143.7v26.9l40.6-13.2C332.3,157.4,292.2,169.4,291.7,143.7z"/>
	</g>
	<g>
		<path class="st6" d="M144.9,99.5c0,0-5.9,12-0.7,23.5l106.9,20.4l90.5-14.5l-6.9-1.2l1.2-23.5l5.4-1.2L234.9,85.3
			C234.9,85.3,148.6,94.6,144.9,99.5z"/>
		<g>
			<defs>
				<path id="SVGID_11_" d="M256.1,118.4c0,0-8.1,11.3-1.7,22.8l81.4-13.5l1.2-23.5L256.1,118.4z"/>
			</defs>
			<clipPath id="SVGID_12_">
				<use xlink:href="#SVGID_11_"  style="overflow:visible;"/>
			</clipPath>
			<path class="st37" d="M256.1,118.4c0,0-8.1,11.3-1.7,22.8l81.4-13.5l1.2-23.5L256.1,118.4z"/>
			<path class="st38" d="M297.6,134c-9.2-0.2-19.3-0.4-28.2-2.8c-5.8-1.6-10.8-4.7-15.7-8c-1.7,4.4-3,11.1,0.8,18l43.4-7.2
				C297.8,134,297.7,134,297.6,134z"/>
			<g class="st39">
				
					<rect x="246.6" y="114.9" transform="matrix(0.9871 -0.1602 0.1602 0.9871 -14.6254 48.8836)" class="st9" width="98.7" height="0.5"/>
			</g>
			<g class="st39">
				
					<rect x="246.6" y="120.5" transform="matrix(0.9871 -0.1602 0.1602 0.9871 -15.5277 48.9563)" class="st9" width="98.7" height="0.5"/>
			</g>
			<g class="st39">
				
					<rect x="246.6" y="126.2" transform="matrix(0.9871 -0.1602 0.1602 0.9871 -16.43 49.029)" class="st9" width="98.7" height="0.5"/>
			</g>
			<g class="st39">
				
					<rect x="246.6" y="130.7" transform="matrix(0.9871 -0.1602 0.1602 0.9871 -17.1518 49.0872)" class="st9" width="98.7" height="0.5"/>
			</g>
		</g>
		<g>
			<path class="st14" d="M254.3,98.7c5.2,0.9,5.9,2.2,1.5,2.9c-4.3,0.7-12.1,0.6-17.3-0.3c-5.2-0.9-5.9-2.2-1.5-2.9
				C241.4,97.6,249.1,97.8,254.3,98.7z"/>
			<g>
				<path class="st14" d="M232.2,98.1c-2.2,0.1-4.8,0.1-7.2-0.1c-1.2-0.1-2.4-0.2-3.4-0.3c-2.5-0.4-3-1-4.1-1.5
					c-2.2-1.1-8.1-2.1-14.7-2.4c5.6-0.1,11.9-0.2,17.2,0.4c5.8,0.6,8.3,1.8,11,2.8c1,0.4,2.2,0.8,3.2,1.2L232.2,98.1z"/>
			</g>
			<g>
				<path class="st14" d="M259,102c2.2-0.1,4.8-0.1,7.2,0.1c1.2,0.1,2.4,0.2,3.3,0.3c2.5,0.4,2.9,1,4,1.5c2.2,1.1,8.1,2,14.6,2.4
					c-5.6,0.1-11.8,0.2-17.1-0.4c-5.7-0.6-8.3-1.8-11-2.8c-1-0.4-2.2-0.8-3.2-1.1L259,102z"/>
			</g>
			<g>
				<path class="st14" d="M242.7,97.4c-2.3-0.2-4.4-0.5-5.7-0.9c-0.7-0.2-1.2-0.4-1.3-0.6c-0.4-0.5,1.9-0.9,3.2-1.4
					c2.8-0.9,2.1-2.1-1.9-3.1c5.2,0.6,10.9,1.3,12.9,2.3c2.2,1-0.7,2-2.8,2.9c-0.8,0.3-1.5,0.7-2.3,1L242.7,97.4z"/>
			</g>
			<g>
				<path class="st14" d="M248.5,102.8c2.3,0.2,4.3,0.5,5.7,0.9c0.7,0.2,1.2,0.4,1.3,0.6c0.4,0.5-1.9,0.9-3.2,1.4
					c-2.8,0.9-2.1,2.1,1.9,3.1c-5.2-0.6-10.8-1.3-12.9-2.3c-2.2-1,0.7-2,2.8-2.9c0.8-0.3,1.5-0.7,2.3-1L248.5,102.8z"/>
			</g>
			<g>
				<path class="st14" d="M253.4,98c-1.3-0.4-1.9-0.8-1.7-1.2c0.1-0.2,0.4-0.4,1.1-0.5c1.7-0.4,5.2-0.4,8.1-0.5
					c5.9-0.3,10-1.2,10.2-2.3c2.4,0.9,4.8,2,3,2.8c-2,0.9-8.3,1.2-13.6,1.6c-2,0.1-4,0.3-6,0.4L253.4,98z"/>
			</g>
			<g>
				<path class="st14" d="M237.8,102.2c1.3,0.4,1.9,0.8,1.7,1.2c-0.1,0.2-0.4,0.4-1.1,0.5c-1.7,0.4-5.2,0.4-8.1,0.6
					c-6,0.3-10.1,1.2-10.2,2.3c-2.4-0.9-4.8-2-3-2.8c2-0.9,8.3-1.2,13.7-1.6c2-0.1,4-0.3,6.1-0.4L237.8,102.2z"/>
			</g>
			<g>
				<path class="st14" d="M261.5,100c0.7-0.4,2.2-0.7,4.1-0.8c1-0.1,2.1-0.1,3.3-0.1c3.2,0,6.1,0.4,9.1,0.7
					c6.1,0.6,13.6,0.6,18.6,0.1c-2.4,0.8-5.2,1.6-10.6,1.8c-5.8,0.2-12.4-0.4-18.5-0.9c-2.3-0.2-4.6-0.3-6.9-0.5L261.5,100z"/>
			</g>
			<g>
				<path class="st14" d="M229.7,100.2c-0.7,0.4-2.2,0.7-4.1,0.8c-1,0.1-2.1,0.1-3.3,0.1c-3.2,0-6.2-0.4-9.2-0.7
					c-6.2-0.6-13.7-0.7-18.8-0.1c2.4-0.8,5.3-1.7,10.7-1.9c5.9-0.2,12.5,0.4,18.6,0.9c2.3,0.2,4.6,0.4,6.9,0.5L229.7,100.2z"/>
			</g>
		</g>
		<path class="st14" d="M157.7,101.8c0,0-7.2,14.1,0.5,24l9.1,1.6c0,0-4.8-16.8,2.1-24L157.7,101.8z"/>
		<path class="st14" d="M221.4,114.2c0,0-7.2,14.1,0.5,24l9.1,1.6c0,0-4.8-16.8,2.1-24L221.4,114.2z"/>
		<path class="st21" d="M144.9,99.5l111.2,18.9c0,0-4.4,6.7-4.8,12l-109.4-19.9C141.9,110.5,142.6,101.4,144.9,99.5z"/>
		<g class="st40">
			
				<rect x="200.2" y="58.6" transform="matrix(0.1744 -0.9847 0.9847 0.1744 58.6938 287.3961)" class="st12" width="1.1" height="100.1"/>
		</g>
		<path class="st41" d="M250.6,139.5c-0.3-1-0.5-1.9-0.7-2.9l-107.6-18l1.9,4.4l106.9,20.4C250.4,142.1,250.4,140.7,250.6,139.5z"/>
		<path class="st21" d="M159.3,95.5c0,0,41.3-7.1,75.6-10.3L298,95.5H159.3z"/>
	</g>
</g>
</svg>
