<svg xmlns="http://www.w3.org/2000/svg" xmlns:xlink="http://www.w3.org/1999/xlink" viewBox="0 0 1527.67 1000.35"><defs><style>.cls-1{fill:none;}.cls-2{fill:#fff2e4;}.cls-3{clip-path:url(#clip-path);}.cls-4{fill:#d8bc9c;}.cls-5{fill:#757c6b;}.cls-6{fill:#9da48f;}.cls-7{fill:#d1dbbe;}.cls-8{fill:#fff;}.cls-9{fill:#b76c5f;}.cls-10{fill:#e2a89f;}.cls-11{fill:#be7b6d;}.cls-12{fill:#8b4a3d;}.cls-13{fill:#f4d9ca;}.cls-14{fill:#4e625f;}.cls-15{fill:#cb958a;}.cls-16{fill:#f1c1b7;}.cls-17{fill:#ce827e;}.cls-18{fill:#7f4238;}.cls-19{font-size:65.2px;fill:#433632;font-family:Sofia-Regular, Sofia Regular;}.cls-20{letter-spacing:-0.04em;}.cls-21{letter-spacing:-0.02em;}.cls-22{letter-spacing:-0.04em;}.cls-23{letter-spacing:-0.03em;}.cls-24{letter-spacing:0em;}.cls-25{letter-spacing:-0.04em;}.cls-26{letter-spacing:0.02em;}.cls-27{letter-spacing:0em;}.cls-28{letter-spacing:-0.01em;}</style><clipPath id="clip-path" transform="translate(376.27 204)"><rect class="cls-1" x="-253" y="-204" width="1309" height="872.67"/></clipPath></defs><g id="BACKGROUND"><rect class="cls-2" x="123.27" width="1309" height="872.67"/></g><g id="OBJECTS"><g class="cls-3"><path class="cls-4" d="M-278.5,496.1S-133.42,386-25.44,412,82.1,528.74,239.18,535s213.55-39.08,523-105c326.89-69.6,347.95,66.06,347.95,66.06V696.84l-1402.55-11.4Z" transform="translate(376.27 204)"/><path class="cls-5" d="M-210.18,733.52a1.33,1.33,0,0,1-.2-1.73c48.73-72.68,67-125.93,67.2-126.45a1.35,1.35,0,0,1,1.71-.85,1.35,1.35,0,0,1,.84,1.71c-.18.53-18.57,54.08-67.52,127.09a1.35,1.35,0,0,1-1.87.36Z" transform="translate(376.27 204)"/><path class="cls-5" d="M-183.12,690.27s40.27-50.2,51.4-27.67S-183.12,690.27-183.12,690.27Z" transform="translate(376.27 204)"/><path class="cls-5" d="M-160.25,648.84s40.27-50.19,51.4-27.67S-160.25,648.84-160.25,648.84Z" transform="translate(376.27 204)"/><path class="cls-5" d="M-144.07,612.14s6.6-64,28.17-51.13S-144.07,612.14-144.07,612.14Z" transform="translate(376.27 204)"/><path class="cls-5" d="M-209,732.77s40.27-50.2,51.4-27.67S-209,732.77-209,732.77Z" transform="translate(376.27 204)"/><path class="cls-5" d="M-178,682.38s14-62.8-10.51-57.42S-178,682.38-178,682.38Z" transform="translate(376.27 204)"/><path class="cls-5" d="M-154.7,638.29s14-62.8-10.51-57.42S-154.7,638.29-154.7,638.29Z" transform="translate(376.27 204)"/><path class="cls-5" d="M-202.34,722.91s14-62.8-10.51-57.42S-202.34,722.91-202.34,722.91Z" transform="translate(376.27 204)"/><path class="cls-5" d="M676.81,735a1.35,1.35,0,0,1-1.72.3c-75.24-44.68-129.41-60-129.94-60.18a1.34,1.34,0,1,1,.72-2.58c.54.15,55,15.58,130.6,60.45a1.35,1.35,0,0,1,.46,1.84A.66.66,0,0,1,676.81,735Z" transform="translate(376.27 204)"/><path class="cls-5" d="M632.14,710.38s-52.32-37.46-30.45-49.8S632.14,710.38,632.14,710.38Z" transform="translate(376.27 204)"/><path class="cls-5" d="M589.52,689.82S537.2,652.36,559.08,640,589.52,689.82,589.52,689.82Z" transform="translate(376.27 204)"/><path class="cls-5" d="M552,675.67s-64.28-3.08-52.6-25.32S552,675.67,552,675.67Z" transform="translate(376.27 204)"/><path class="cls-5" d="M676,733.92s-52.32-37.46-30.44-49.81S676,733.92,676,733.92Z" transform="translate(376.27 204)"/><path class="cls-5" d="M624,705.72s-63.48-10.58-56.76,13.63S624,705.72,624,705.72Z" transform="translate(376.27 204)"/><path class="cls-5" d="M578.68,684.86s-63.47-10.57-56.76,13.63S578.68,684.86,578.68,684.86Z" transform="translate(376.27 204)"/><path class="cls-5" d="M665.79,727.79S602.31,717.22,609,741.43,665.79,727.79,665.79,727.79Z" transform="translate(376.27 204)"/><path class="cls-5" d="M1151.23,545.81a1.33,1.33,0,0,1-.34,1.71c-69,53.85-103,98.71-103.32,99.16a1.34,1.34,0,1,1-2.15-1.61c.34-.45,34.52-45.58,103.81-99.67a1.35,1.35,0,0,1,1.89.24A1,1,0,0,1,1151.23,545.81Z" transform="translate(376.27 204)"/><path class="cls-5" d="M1112,578.46s-53.92,35.12-57.46,10.25S1112,578.46,1112,578.46Z" transform="translate(376.27 204)"/><path class="cls-5" d="M1077.37,610.68s-53.93,35.11-57.47,10.24S1077.37,610.68,1077.37,610.68Z" transform="translate(376.27 204)"/><path class="cls-5" d="M1050.54,640.5s-26.25,58.75-42.72,39.78S1050.54,640.5,1050.54,640.5Z" transform="translate(376.27 204)"/><path class="cls-5" d="M1149.9,546.17s-53.93,35.12-57.47,10.25S1149.9,546.17,1149.9,546.17Z" transform="translate(376.27 204)"/><path class="cls-5" d="M1104.71,584.36s-32.93,55.28-7.94,57.83S1104.71,584.36,1104.71,584.36Z" transform="translate(376.27 204)"/><path class="cls-5" d="M1068.8,619s-32.93,55.29-7.94,57.83S1068.8,619,1068.8,619Z" transform="translate(376.27 204)"/><path class="cls-5" d="M1140.48,553.45s-32.94,55.28-7.94,57.83S1140.48,553.45,1140.48,553.45Z" transform="translate(376.27 204)"/><path class="cls-6" d="M-349.61,317.36s19.7-36.54,64.65-58.3,60.35-9.74,64.2-3,2.09,31.29-45.27,47.89S-349.61,317.36-349.61,317.36Z" transform="translate(376.27 204)"/><path class="cls-7" d="M-268.13,305.43a1,1,0,0,0-.33-1.3c-3.75-2.25-28-7.47-36.17-9.19,10.26-5.2,20.89-10.47,31.33-15.44,2.81.34,25,3.13,38.66,8.63a1,1,0,0,0,1.24-.52,1,1,0,0,0-.53-1.24C-245.48,281.71-263,279-270.14,278c18.37-8.69,36-16.35,49.69-21.05a1,1,0,0,0,.59-1.2.94.94,0,0,0-1.21-.59c-13.9,4.76-31.75,12.54-50.36,21.35,5.69-10.3,21.31-28.36,21.49-28.56a1,1,0,0,0-.1-1.34,1,1,0,0,0-1.34.1c-.75.87-18.32,21.18-22.85,31.13-10.43,5-21,10.23-31.29,15.42,3.65-6.95,15.27-25.49,20.08-33.06a1,1,0,0,0-.29-1.31,1,1,0,0,0-1.31.29c-.8,1.26-19.16,30.15-21.24,35.48-36.12,18.4-66.94,35.6-67.51,35.91a1,1,0,0,0-.39,1.23l0,.06a1,1,0,0,0,1.29.37c.56-.32,31.41-17.53,67.52-35.92,9.73,2,34.5,7.4,37.9,9.45A1,1,0,0,0-268.13,305.43Z" transform="translate(376.27 204)"/><path class="cls-6" d="M895.82,375.1s2-33.85,27.85-65.42,41.35-28,46.52-24.3,12.31,22.46-17.07,51S895.82,375.1,895.82,375.1Z" transform="translate(376.27 204)"/><path class="cls-7" d="M952.07,338.25a.78.78,0,0,0-.68-.86c-3.56-.38-23.29,4.09-30,5.63,5.81-7.38,11.87-14.93,17.9-22.21,2.2-.71,19.62-6.29,31.61-6.9a.77.77,0,0,0-.08-1.54c-10.16.51-24.07,4.51-29.71,6.24,10.63-12.75,21-24.48,29.58-32.67a.78.78,0,0,0,0-1.1.76.76,0,0,0-1.09,0c-8.67,8.3-19.21,20.21-30,33.13.67-9.59,6-28.33,6.1-28.54a.78.78,0,0,0-1.49-.43c-.26.91-6.29,22-6.23,30.92-6,7.27-12.07,14.81-17.87,22.19.31-6.41,2.54-24.14,3.5-31.4a.78.78,0,0,0-.66-.87.76.76,0,0,0-.87.67c-.16,1.2-3.83,28.92-3.54,33.58-20.43,26.05-37.35,49.38-37.66,49.81a.78.78,0,0,0,.13,1.05l0,0a.77.77,0,0,0,1.08-.17c.31-.43,17.24-23.78,37.68-49.82,7.89-1.86,28.09-6.38,31.32-6A.76.76,0,0,0,952.07,338.25Z" transform="translate(376.27 204)"/><path class="cls-6" d="M-260.1,697.68s-31.91-42.82-32.85-107,21.41-75.64,31.36-76.47S-224,528.72-230.35,593-260.1,697.68-260.1,697.68Z" transform="translate(376.27 204)"/><path class="cls-7" d="M-229.76,596.21a1.21,1.21,0,0,0-1.69-.33c-4.66,3.15-23.89,28.55-30.36,37.18-.5-14.78-.86-30-1-44.91,1.92-3.09,17.25-27.48,31.07-40.39a1.22,1.22,0,0,0,.06-1.72,1.23,1.23,0,0,0-1.73-.06c-11.71,10.94-24.4,29.86-29.43,37.67-.15-26.13.47-50.81,2.45-69.36a1.22,1.22,0,0,0-1.08-1.34,1.22,1.22,0,0,0-1.35,1.09c-2,18.78-2.61,43.83-2.45,70.3-8.92-12.23-21.49-40.25-21.63-40.55a1.22,1.22,0,0,0-1.61-.62,1.23,1.23,0,0,0-.62,1.61c.61,1.35,14.74,32.87,23.89,43.55.13,14.86.49,30.09,1,44.85-6.11-8-21.43-31.64-27.64-41.36a1.21,1.21,0,0,0-1.68-.37,1.22,1.22,0,0,0-.37,1.68c1,1.62,24.74,38.71,29.83,44,1.82,52.11,5.13,97.38,5.2,98.2a1.21,1.21,0,0,0,1.21,1.13h.09a1.22,1.22,0,0,0,1.13-1.31c-.06-.82-3.38-46.13-5.2-98.22,7.62-10.25,27.36-36.2,31.59-39.06A1.21,1.21,0,0,0-229.76,596.21Z" transform="translate(376.27 204)"/><path class="cls-6" d="M842.69,739.68s-46.4-26.42-73-84.87-10.72-77.89-1.95-82.64,40.3-1.75,60.22,59.65S842.69,739.68,842.69,739.68Z" transform="translate(376.27 204)"/><path class="cls-7" d="M829.79,634.57a1.21,1.21,0,0,0-1.68.37c-3,4.76-10.44,35.74-12.9,46.24-6.39-13.35-12.83-27.17-18.92-40.74.52-3.61,4.78-32.1,12.26-49.46a1.22,1.22,0,1,0-2.24-1c-6.34,14.72-10.38,37.14-11.85,46.31-10.62-23.88-20-46.73-25.57-64.51a1.22,1.22,0,0,0-1.53-.8,1.2,1.2,0,0,0-.8,1.53c5.7,18,15.18,41.2,26,65.39-13.08-7.62-35.83-28.25-36.08-28.47a1.22,1.22,0,1,0-1.64,1.8c1.1,1,26.68,24.19,39.34,30.31,6.08,13.56,12.52,27.37,18.89,40.7-8.82-4.91-32.32-20.4-41.9-26.81a1.22,1.22,0,0,0-1.36,2c1.59,1.06,38.19,25.53,45,28.36,22.57,47,43.76,87.15,44.15,87.88a1.23,1.23,0,0,0,1.57.55l.08,0a1.22,1.22,0,0,0,.5-1.65c-.39-.73-21.59-40.91-44.15-87.89,2.87-12.45,10.55-44.14,13.28-48.45A1.22,1.22,0,0,0,829.79,634.57Z" transform="translate(376.27 204)"/><path class="cls-6" d="M191.48,760s-11-52.25,15.07-111,51.16-59.69,60.54-56.28,28,29-4.68,84.63S191.48,760,191.48,760Z" transform="translate(376.27 204)"/><path class="cls-7" d="M261.58,680.61a1.21,1.21,0,0,0-1.4-1c-5.55.9-33.66,15.9-43.15,21C222.78,687,228.85,673,235,659.44c3-2,27.19-17.72,45.15-23.64a1.22,1.22,0,0,0-.77-2.32c-15.22,5-34.67,16.87-42.52,21.86,10.83-23.79,21.74-45.93,31.32-61.94a1.22,1.22,0,0,0-.43-1.67,1.2,1.2,0,0,0-1.67.42c-9.69,16.22-20.76,38.69-31.71,62.79-3-14.84-2.63-45.55-2.63-45.88a1.22,1.22,0,1,0-2.44,0c0,1.48-.4,36,3.42,49.54-6.11,13.55-12.17,27.53-17.91,41.14-2.19-9.86-6.19-37.72-7.75-49.14a1.22,1.22,0,1,0-2.41.33c.25,1.9,6.22,45.51,8.61,52.48-20.19,48.07-36.17,90.55-36.47,91.33a1.22,1.22,0,0,0,.64,1.53l.08,0a1.22,1.22,0,0,0,1.57-.71c.29-.78,16.28-43.29,36.47-91.34,11.22-6.12,40-21.39,45.06-22.21A1.22,1.22,0,0,0,261.58,680.61Z" transform="translate(376.27 204)"/><path class="cls-6" d="M661.4,424.91s-13.89,38-54.24,65.32-56.89,17.86-61.55,11.9-6.4-29.91,37-52.57S661.4,424.91,661.4,424.91Z" transform="translate(376.27 204)"/><path class="cls-7" d="M584.43,447.83a.92.92,0,0,0,.49,1.21c3.94,1.65,28,3.29,36.21,3.81-9.18,6.46-18.7,13-28.08,19.29-2.76.07-24.61.48-38.53-2.92a.93.93,0,0,0-.44,1.8c11.8,2.88,29.08,3.07,36.13,3-16.52,11-32.43,20.82-45,27.27a.94.94,0,0,0-.4,1.25.91.91,0,0,0,1.24.4c12.75-6.54,28.9-16.56,45.63-27.66-4,10.74-16.6,30.36-16.74,30.57a.93.93,0,0,0,1.56,1c.6-.94,14.72-23,17.69-33.25,9.37-6.26,18.88-12.82,28.05-19.27-2.56,7.22-11.17,26.75-14.76,34.73a.93.93,0,0,0,1.69.76c.6-1.33,14.27-31.79,15.53-37.23,32.3-22.81,59.64-43.72,60.14-44.11a.93.93,0,0,0,.21-1.24l0-.05a.92.92,0,0,0-1.3-.17c-.5.38-27.86,21.31-60.14,44.11-9.68-.57-34.34-2.3-37.91-3.8A.92.92,0,0,0,584.43,447.83Z" transform="translate(376.27 204)"/><path class="cls-8" d="M33.31,713.47a14.33,14.33,0,0,1-6.85-16.69,32.84,32.84,0,0,1,2.71-6,33.89,33.89,0,0,1,3.63-5.49,14.35,14.35,0,0,1,17.78-3.07L46,669.15-49.65,613l-15.07,30.26.23,16.16,9.5,9.07,79.31,43.85Z" transform="translate(376.27 204)"/><path class="cls-9" d="M-39.66,624.88l-4.1-44.06L46,630.63l10.66,48.84a3.35,3.35,0,0,0-1.73-2.32Z" transform="translate(376.27 204)"/><path class="cls-10" d="M45.68,651l-82.55-45.76-1.5-16.15L41.9,633.64Zm-80.86-46.87L43.1,647.5l-2.77-12.69-76.61-42.53Z" transform="translate(376.27 204)"/><path class="cls-11" d="M-69.78,652.81l-1.44-51a30.35,30.35,0,0,1,3-7.46c6.83-12.35,17.64-15.23,24.49-13.49l4.1,44.06c-6.85-1.74-19.56.9-26.39,13.25a30.81,30.81,0,0,0-3,7.47l1,4.08Z" transform="translate(376.27 204)"/><path class="cls-12" d="M-66,638.13c6.83-12.35,18.31-15.23,25.17-13.49a11.08,11.08,0,0,1,2.62,1c6,3.34,93.34,51.61,93.34,51.61a3.34,3.34,0,0,1,1.26,4.34c-1.16,3-4.42,1.37-4.42,1.37l-90.28-49.92a14.33,14.33,0,0,0-17.77,3.08,32.5,32.5,0,0,0-3.63,5.48,32.58,32.58,0,0,0-2.72,6,14.36,14.36,0,0,0,6.85,16.69l90.28,49.92s3.15,1.87,1.19,4.47a3.33,3.33,0,0,1-4.34,1.24l-93.34-51.61c-5-2.76-9.88-11.78-7.18-22.71A30.81,30.81,0,0,1-66,638.13Z" transform="translate(376.27 204)"/><path class="cls-8" d="M689.59,586a14.34,14.34,0,0,1-16.5-7.28,41.44,41.44,0,0,1-3.39-12.66,14.35,14.35,0,0,1,10.68-14.55L668,545.32,560.13,571.16l10.13,32.24,11.37,11.49,13.13-.06,87.56-23.4Z" transform="translate(376.27 204)"/><path class="cls-9" d="M575.59,572.8l-33.5-28.9,99.17-26.33,41.54,27.81a3.33,3.33,0,0,0-2.85-.48Z" transform="translate(376.27 204)"/><path class="cls-10" d="M655.17,532.42,564,556.7l-12.28-10.59,88.74-23.56Zm-90.75,22.31,86.48-23-10.79-7.22L555.42,547Z" transform="translate(376.27 204)"/><path class="cls-11" d="M573.26,613.81,536.83,578a30.07,30.07,0,0,1-3-7.43c-3.65-13.64,2.15-23.21,8.3-26.71l33.5,28.9c-6.15,3.5-13.47,14.22-9.82,27.85a30.15,30.15,0,0,0,3,7.44l3.52,2.27Z" transform="translate(376.27 204)"/><path class="cls-12" d="M565.77,600.65c-3.65-13.63,2.63-23.67,8.77-27.17a10.77,10.77,0,0,1,2.6-1.09l103-27.54a3.32,3.32,0,0,1,3.91,2.25c1.28,3-2.23,4-2.23,4L582.2,577.79a14.33,14.33,0,0,0-10.68,14.54A41.4,41.4,0,0,0,574.91,605a14.34,14.34,0,0,0,16.5,7.27l99.67-26.64s3.57-.83,4,2.4a3.33,3.33,0,0,1-2.28,3.9s-96.39,25.76-103,27.55c-5.52,1.48-15.28-1.64-20.91-11.39A30.15,30.15,0,0,1,565.77,600.65Z" transform="translate(376.27 204)"/><path class="cls-4" d="M-199.85,324.47s-6.52-19.08-15.29-13.93,4.75,17,4.75,17-17.12,1.55-13.51,9.29,13.51,0,13.51,0-7,12.89-1.74,16S-199.85,342-199.85,342s3.8,13.28,10.5,11.28,0-15.92,0-15.92,13.41,4.64,15.47-1-16-6.2-16-6.2,10.32-9.27,5.68-14.94S-199.85,324.47-199.85,324.47Z" transform="translate(376.27 204)"/><circle class="cls-13" cx="175.4" cy="536.55" r="4.73"/><path class="cls-4" d="M515.32,391.35s19.75,4,19.73-6.15S518,380.69,518,380.69s7.32-15.56-1.18-16.35S510,376,510,376s-7.6-12.54-12.92-9.58,3.15,16.07,3.15,16.07-13.38-3.43-15.05,3.36,13.74,8,13.74,8-10.78,9.23-6.93,13.88,13.43-10.67,13.43-10.67,2.79,13.59,10,12.45S515.32,391.35,515.32,391.35Z" transform="translate(376.27 204)"/><path class="cls-13" d="M506.47,390.47a4.73,4.73,0,1,0-1.69-6.47A4.73,4.73,0,0,0,506.47,390.47Z" transform="translate(376.27 204)"/><path class="cls-4" d="M1057,273.93s6.1-22.89-5.83-23.58-6.48,19.72-6.48,19.72-17.73-9.68-19.26.24,13.2,8.82,13.2,8.82-15.24,8-12.14,14.48,19.06-2.56,19.06-2.56-5,15.44,2.89,17.88,10.39-15.55,10.39-15.55,10.07,13.29,15.79,9.1-11.57-16.5-11.57-16.5,16.13-2.31,15.31-10.88S1057,273.93,1057,273.93Z" transform="translate(376.27 204)"/><path class="cls-13" d="M1055.35,284.25a5.56,5.56,0,1,0-7.71,1.53A5.56,5.56,0,0,0,1055.35,284.25Z" transform="translate(376.27 204)"/><path class="cls-4" d="M-39,321.93s14.05,6.85,16-.79S-35,314.45-35,314.45s8.51-10.26,2.28-12.5-7.38,7.42-7.38,7.42-3.27-10.88-7.84-9.69-.76,12.67-.76,12.67S-58,307.18-60.6,312s8.75,8.71,8.75,8.71-9.88,4.83-7.89,9.06,12.15-5.4,12.15-5.4-.54,10.74,5.11,11.29S-39,321.93-39,321.93Z" transform="translate(376.27 204)"/><path class="cls-13" d="M-45.49,319.56a3.66,3.66,0,0,0,5.18,0,3.65,3.65,0,0,0,0-5.18,3.67,3.67,0,0,0-5.19,0A3.68,3.68,0,0,0-45.49,319.56Z" transform="translate(376.27 204)"/><path class="cls-4" d="M798.62,384.88s-.68-15.61-8.33-13.69-.18,13.69-.18,13.69-13.08-2.58-12.08,4,10.05,3,10.05,3-8,8.07-4.78,11.51,11.5-5.38,11.5-5.38-.07,10.71,5.35,10.68,3.47-11.84,3.47-11.84,9,6.38,11.73,2.61-10.54-8.1-10.54-8.1,9.7-4.65,7.48-9.88S798.62,384.88,798.62,384.88Z" transform="translate(376.27 204)"/><path class="cls-13" d="M799.62,391.7a3.66,3.66,0,1,0-4.55,2.49A3.67,3.67,0,0,0,799.62,391.7Z" transform="translate(376.27 204)"/><path class="cls-2" d="M-10,548.72S-7.2,570,3,566.41s-1.4-18.72-1.4-18.72,18.17,1.95,16-6.86S3.54,538,3.54,538s10-12,5.13-16.29-15,8.73-15,8.73-1.2-14.63-8.6-13.94-3.31,16.59-3.31,16.59-13-7.63-16.34-2.15,15.37,9.79,15.37,9.79-12.68,7.51-9,14.39S-10,548.72-10,548.72Z" transform="translate(376.27 204)"/><path class="cls-13" d="M-12.21,539.53a5,5,0,0,0,3.94,5.91,5,5,0,0,0,5.92-4,5,5,0,0,0-3.95-5.91A5,5,0,0,0-12.21,539.53Z" transform="translate(376.27 204)"/><path class="cls-2" d="M996.07,483.39s16.8,13.3,21.66,3.65-14-12.48-14-12.48,14.41-11.23,6.73-16.06-12.07,7.77-12.07,7.77-1.18-15.53-7.64-15.28S986,467.73,986,467.73s-11-9.68-15.87-4,9.16,14.22,9.16,14.22-14.65,3.57-13.23,9.83,17.85-3.66,17.85-3.66-3.88,14.21,3.53,16.61S996.07,483.39,996.07,483.39Z" transform="translate(376.27 204)"/><path class="cls-13" d="M988.1,478.31a5,5,0,1,0,1.5-6.95A5,5,0,0,0,988.1,478.31Z" transform="translate(376.27 204)"/><path class="cls-2" d="M701.84,628.81s-8.4-15.82-15.36-10.07S693,633,693,633s-14.8,3.77-10.55,10,11.85-1.9,11.85-1.9-4.31,12.29.72,14.26,9.25-11.22,9.25-11.22,5.2,11.11,10.8,8.42-2.24-14-2.24-14,12.41,2.19,13.43-3.07-14.9-3.19-14.9-3.19,7.75-9.59,2.88-13.91S701.84,628.81,701.84,628.81Z" transform="translate(376.27 204)"/><path class="cls-13" d="M706.23,635.37a4.2,4.2,0,1,0-3.48,4.82A4.2,4.2,0,0,0,706.23,635.37Z" transform="translate(376.27 204)"/><path class="cls-4" d="M182,431.93s-.41-17-8.77-15.06-.48,14.88-.48,14.88-14.16-3.08-13.21,4.05,10.86,3.42,10.86,3.42-8.87,8.6-5.43,12.41,12.6-5.6,12.6-5.6-.29,11.63,5.6,11.72,4-12.8,4-12.8,9.61,7.12,12.7,3.08-11.29-9-11.29-9,10.64-4.85,8.34-10.58S182,431.93,182,431.93Z" transform="translate(376.27 204)"/><path class="cls-13" d="M183,439.36a4,4,0,1,0-5,2.61A4,4,0,0,0,183,439.36Z" transform="translate(376.27 204)"/><path class="cls-7" d="M-104.09,380.18s-36.62,39.86-8.4,46.41C-86.62,432.59-104.09,380.18-104.09,380.18Z" transform="translate(376.27 204)"/><path class="cls-7" d="M-82.85,370.28s27.86,44.79,41,24.28S-82.85,370.28-82.85,370.28Z" transform="translate(376.27 204)"/><path class="cls-7" d="M-81.81,418.11s-39.32,38.94-7.75,44.2C-61.46,467-81.81,418.11-81.81,418.11Z" transform="translate(376.27 204)"/><path class="cls-7" d="M-56.83,409.24s19.38,45.08,37,28.51S-56.83,409.24-56.83,409.24Z" transform="translate(376.27 204)"/><path class="cls-7" d="M-57.24,435s-8.57,58.6,19.85,49.55C-9.73,475.78-57.24,435-57.24,435Z" transform="translate(376.27 204)"/><path class="cls-14" d="M-43.41,470.45a1.12,1.12,0,0,1-.65-.68c-27.87-82.41-86.39-136-87-136.55a1.11,1.11,0,0,1-.08-1.57,1.1,1.1,0,0,1,1.56-.07c.6.53,59.54,54.53,87.59,137.48a1.09,1.09,0,0,1-.69,1.4A1.1,1.1,0,0,1-43.41,470.45Z" transform="translate(376.27 204)"/><path class="cls-14" d="M-109.56,413.94a1.12,1.12,0,0,1-.67-1.31c.07-.3,7.53-29.8,3.66-53.5a1.09,1.09,0,0,1,.43-1.07A1.1,1.1,0,0,1-105,358c1.75.86,42.91,21.17,52.61,29.15a1.11,1.11,0,0,1,.15,1.56,1.11,1.11,0,0,1-1.56.15c-8.33-6.86-41.9-23.75-50.28-27.93,3.2,23.77-3.94,52-4,52.3a1.12,1.12,0,0,1-1.35.8Z" transform="translate(376.27 204)"/><path class="cls-14" d="M-88.42,448.55a1.11,1.11,0,0,1-.66-1.36c1-3.22,9.82-40.52,8.44-52.42a1.1,1.1,0,0,1,.5-1.06,1.12,1.12,0,0,1,1.18,0c1.7,1.06,41.58,26,50.28,35a1.12,1.12,0,0,1,0,1.57,1.12,1.12,0,0,1-1.57,0c-7.46-7.74-39.91-28.42-48-33.53.36,14.09-7.58,47.63-8.66,51.11a1.11,1.11,0,0,1-1.39.73Z" transform="translate(376.27 204)"/><path class="cls-7" d="M484.53,542.73s39.05-37.48,11.3-45.78C470.39,489.33,484.53,542.73,484.53,542.73Z" transform="translate(376.27 204)"/><path class="cls-7" d="M462.71,551.28s-25-46.45-39.41-26.81S462.71,551.28,462.71,551.28Z" transform="translate(376.27 204)"/><path class="cls-7" d="M464.68,503.48s41.69-36.4,10.51-43.62C447.44,453.42,464.68,503.48,464.68,503.48Z" transform="translate(376.27 204)"/><path class="cls-7" d="M439.19,510.76S422.68,464.55,404.05,480,439.19,510.76,439.19,510.76Z" transform="translate(376.27 204)"/><path class="cls-7" d="M441.22,485.05s12.23-57.95-16.7-50.71C396.36,441.39,441.22,485.05,441.22,485.05Z" transform="translate(376.27 204)"/><path class="cls-14" d="M429.64,448.83a1.11,1.11,0,0,1,.61.72c22.64,84,77.67,141.17,78.22,141.74a1.11,1.11,0,1,1-1.59,1.55c-.55-.57-56-58.17-78.77-142.71a1.11,1.11,0,0,1,.78-1.36A1.13,1.13,0,0,1,429.64,448.83Z" transform="translate(376.27 204)"/><path class="cls-14" d="M492.11,509.39a1.12,1.12,0,0,1,.59,1.35c-.1.29-9.39,29.26-7,53.16a1.09,1.09,0,0,1-.49,1,1.1,1.1,0,0,1-1.16,0c-1.69-1-41.5-23.82-50.68-32.39a1.11,1.11,0,0,1,1.52-1.62c7.89,7.37,40.33,26.34,48.43,31-1.7-23.92,7.2-51.65,7.29-51.94a1.11,1.11,0,0,1,1.4-.71Z" transform="translate(376.27 204)"/><path class="cls-14" d="M473.18,473.51a1.11,1.11,0,0,1,.58,1.4c-1.21,3.15-12.35,39.82-11.71,51.79a1.12,1.12,0,0,1-.58,1,1.1,1.1,0,0,1-1.17-.07c-1.63-1.17-39.87-28.58-48-38.12A1.11,1.11,0,0,1,414,488.1c7,8.19,38.05,30.87,45.82,36.49.52-14.09,10.55-47.06,11.86-50.47a1.1,1.1,0,0,1,1.43-.64Z" transform="translate(376.27 204)"/><path class="cls-7" d="M903.8,458.69s-49.5-21.88-46.65,6.94C859.77,492.06,903.8,458.69,903.8,458.69Z" transform="translate(376.27 204)"/><path class="cls-7" d="M920,475.63s-33.47,40.77-9.83,46.64S920,475.63,920,475.63Z" transform="translate(376.27 204)"/><path class="cls-7" d="M875,492s-49.5-24.75-44.35,6.84C835.27,526.93,875,492,875,492Z" transform="translate(376.27 204)"/><path class="cls-7" d="M891.44,512.78S855,545.6,876.32,557,891.44,512.78,891.44,512.78Z" transform="translate(376.27 204)"/><path class="cls-7" d="M866.89,520.67s-58.25,10.69-40.56,34.7C843.54,578.74,866.89,520.67,866.89,520.67Z" transform="translate(376.27 204)"/><path class="cls-14" d="M837.78,545.14a1.15,1.15,0,0,1,.44-.84c69.1-52.85,101.1-125.47,101.41-126.2a1.11,1.11,0,0,1,1.46-.57,1.09,1.09,0,0,1,.57,1.45c-.31.74-32.54,73.89-102.1,127.08a1.1,1.1,0,0,1-1.55-.21A1.12,1.12,0,0,1,837.78,545.14Z" transform="translate(376.27 204)"/><path class="cls-14" d="M870.08,464.35a1.09,1.09,0,0,1,1-1.06c.31,0,30.64-2.43,51.85-13.71a1.11,1.11,0,0,1,1.62,1.13c-.26,1.93-6.28,47.43-10.72,59.18a1.11,1.11,0,0,1-2.08-.79c3.82-10.09,9.05-47.31,10.32-56.58-21.49,10.66-50.52,13-50.82,13a1.12,1.12,0,0,1-1.19-1Z" transform="translate(376.27 204)"/><path class="cls-14" d="M844.08,495.48a1.1,1.1,0,0,1,1.08-1.06c3.37-.08,41.52-3.71,52.35-8.84a1.11,1.11,0,0,1,1.55,1.26c-.46,1.94-11.3,47.73-17,58.85a1.11,1.11,0,1,1-2-1c4.93-9.56,14.1-46.93,16.35-56.24-13.23,4.86-47.55,8.1-51.19,8.19a1.1,1.1,0,0,1-1.13-1.08Z" transform="translate(376.27 204)"/><path class="cls-11" d="M91.91,481.15s-60.5-18.61-69.14-20.34-8.21,0-8.21,0l13-41.26,12.9-40.84s.86-4.32,12.74-1.73,48.62,19.93,64.6,22.07l-12.89,40.83Z" transform="translate(376.27 204)"/><path class="cls-9" d="M14.56,460.81l13-41.26,12.9-40.84a132.51,132.51,0,0,0-6.7,12.1c-2.38,5.19-22.66,70-22.66,70s-6.26,11.67,5,22.47h0S6.4,478,14.56,460.81" transform="translate(376.27 204)"/><path class="cls-9" d="M91.91,481.15s-60.5-18.61-69.14-20.34-8.21,0-8.21,0-1.6,2.42-3,9.08c-2.09,9.83,4.6,13.39,4.6,13.39l61.68,35,1.78-6S24.71,483.5,20.82,481.15s-5.61-6.08-4.21-12.13,6-5.57,6-5.57c8.54,2.21,67,19.7,67,19.7A2.71,2.71,0,0,0,91.91,481.15Z" transform="translate(376.27 204)"/><path class="cls-8" d="M79.59,512.26S24.71,483.5,20.82,481.15s-5.61-6.08-4.21-12.13,6-5.57,6-5.57c8.54,2.21,67,19.7,67,19.7a2.71,2.71,0,0,0,2.34-2l14.65-46.41L90.29,490.58l-1.52,2.64-1,2.16-1.08,2.92L56.15,485.61l29.17,17.57-1,3.08-8.11-3.08,7.46,3.65-2.27,5.43Z" transform="translate(376.27 204)"/><path class="cls-15" d="M47.92,392.75a7.55,7.55,0,0,1-2.24-.35L29.3,444.28a8,8,0,0,1,5.57,10.34c11.83,3.33,30.37,8.91,43.76,13a7.46,7.46,0,0,1,7.11-5.21,7.27,7.27,0,0,1,2.44.42l15.75-49.88a7.44,7.44,0,0,1-4.77-9.46c-7.8-2.64-16.44-6-24.92-9.35-7-2.75-14.17-5.56-19.06-7.16A7.46,7.46,0,0,1,47.92,392.75Z" transform="translate(376.27 204)"/><path class="cls-16" d="M138.49,624.72s-37.59-62.11-43.67-70.19-7-6.26-7-6.26l42.65-25.39,42.21-25.12s4-3,12.24,8.25,26.4,54.18,38.46,68.21l-42.21,25.11Z" transform="translate(376.27 204)"/><path class="cls-17" d="M87.79,548.27l42.65-25.39,42.21-25.12a153.06,153.06,0,0,0-15,5.25c-6,2.63-72.83,42.64-72.83,42.64S70.59,550.86,72,568.7h0s-4.33-11.91,15.81-20.43" transform="translate(376.27 204)"/><path class="cls-10" d="M138.49,624.72s-37.59-62.11-43.67-70.19-7-6.26-7-6.26-3.22.84-9.52,5.46c-9.3,6.81-6.29,15-6.29,15l26.07,77.07,6.14-3.82s-25-66.51-26.56-71.49-.17-9.49,5.65-13.6,9.38-.2,9.38-.2c5.62,8.41,42.3,68,42.3,68A3.12,3.12,0,0,0,138.49,624.72Z" transform="translate(376.27 204)"/><path class="cls-8" d="M104.19,642s-25-66.51-26.56-71.49-.17-9.49,5.65-13.6,9.38-.2,9.38-.2c5.62,8.41,42.3,68,42.3,68a3.12,3.12,0,0,0,3.53.08l48-28.55L129.9,631.55l-3.31,1.11-2.48,1.11L121,635.44l-16.49-34.2L116,638.55l-3.19,1.9-4.58-8.83,3.59,8.82-6.08,2.92Z" transform="translate(376.27 204)"/><path class="cls-10" d="M168.31,515.46a8.76,8.76,0,0,1-1.66-2L113,545.36a9.18,9.18,0,0,1-.77,11.22,8.93,8.93,0,0,1-2.35,1.88c7.59,11.89,19.2,30.82,27.56,44.53a8.52,8.52,0,0,1,11.84,3.18l51.55-30.68a8.54,8.54,0,0,1,1-10,8.66,8.66,0,0,1,2.16-1.73c-4.67-8.21-9.48-17.71-14.21-27-3.89-7.69-7.88-15.57-10.85-20.67A8.54,8.54,0,0,1,168.31,515.46Z" transform="translate(376.27 204)"/><path class="cls-16" d="M705.37,477.57s45-33.83,50.71-39.15,4.29-5.91,4.29-5.91l22.9,30.91L805.94,494s2.66,2.87-5.41,10.07-39.71,24.6-49.59,35l-22.66-30.59Z" transform="translate(376.27 204)"/><path class="cls-17" d="M760.37,432.51l22.9,30.91L805.94,494a120.44,120.44,0,0,0-5.22-11.14c-2.49-4.41-38.56-52.83-38.56-52.83s-5.14-10.59-18.79-8.13h0s8.85-4.26,17,10.6" transform="translate(376.27 204)"/><path class="cls-10" d="M705.37,477.57s45-33.83,50.71-39.15,4.29-5.91,4.29-5.91-.91-2.42-5-6.91c-6-6.64-12-3.69-12-3.69L686,448l3.42,4.44s49.34-24.5,53.06-26.07,7.3-.88,10.93,3.29.88,7.22.88,7.22c-6,5-49.12,37.93-49.12,37.93A2.4,2.4,0,0,0,705.37,477.57Z" transform="translate(376.27 204)"/><path class="cls-8" d="M689.4,452.48s49.34-24.5,53.06-26.07,7.3-.88,10.93,3.29.88,7.22.88,7.22c-6,5-49.12,37.93-49.12,37.93a2.4,2.4,0,0,0,.22,2.72l25.76,34.77-31.7-40.85L698.32,469l-1.05-1.83-1.54-2.3,25.09-15.38L693,461.33l-1.71-2.3,6.45-4.23-6.52,3.46-2.73-4.46Z" transform="translate(376.27 204)"/><path class="cls-10" d="M792,492a6.69,6.69,0,0,1,1.42-1.44l-28.79-38.86a7.1,7.1,0,0,1-10.35-1.38c-8.58,6.78-22.26,17.21-32.18,24.73a6.62,6.62,0,0,1,0,7.83,6.37,6.37,0,0,1-1.57,1.54l27.68,37.36a6.6,6.6,0,0,1,9.3,1.51c6-4.24,12.91-8.69,19.74-13.07,5.62-3.6,11.39-7.29,15.09-10A6.63,6.63,0,0,1,792,492Z" transform="translate(376.27 204)"/><path class="cls-8" d="M373.05,553.87a30.58,30.58,0,0,1,.7-12.66,40.84,40.84,0,0,1,5.81-12.46l-1.24-3.48-69.67-1.64-7.39,29,3.55,8.62,65.86-4.34Z" transform="translate(376.27 204)"/><path class="cls-12" d="M302.46,563.59l-71.82-51.47a29.68,29.68,0,0,1-.76-18.17,41.56,41.56,0,0,1,9-16.55l71.82,51.47a51.88,51.88,0,0,0-8.1,16.93c-1.4,5.32-2.6,11.18-.16,17.79" transform="translate(376.27 204)"/><path class="cls-11" d="M244.7,503.59A44.09,44.09,0,0,1,253,487.53l-1.58-1.13a45.68,45.68,0,0,0-8.62,16.69,35.69,35.69,0,0,0,.06,17.81l2.58,1.85A33.54,33.54,0,0,1,244.7,503.59Z" transform="translate(376.27 204)"/><path class="cls-11" d="M239.89,500.8a44.41,44.41,0,0,1,8.67-16.47L247,483.2a45.56,45.56,0,0,0-9,17.11,33.09,33.09,0,0,0-.11,17l2.58,1.85A30.9,30.9,0,0,1,239.89,500.8Z" transform="translate(376.27 204)"/><path class="cls-11" d="M289.87,536.05a44.47,44.47,0,0,1,8.38-16.11l-1.58-1.13A45.83,45.83,0,0,0,288,535.56a35.6,35.6,0,0,0,0,17.7l2.57,1.84A33.59,33.59,0,0,1,289.87,536.05Z" transform="translate(376.27 204)"/><path class="cls-11" d="M285.06,533.26a44.25,44.25,0,0,1,8.73-16.52l-1.58-1.13a45.44,45.44,0,0,0-9,17.16,33,33,0,0,0-.14,16.92l2.58,1.84A30.94,30.94,0,0,1,285.06,533.26Z" transform="translate(376.27 204)"/><polygon class="cls-11" points="686.99 732.87 727.1 729.7 762.35 726.91 690.52 675.44 615.17 681.4 686.99 732.87"/><path class="cls-18" d="M304.66,564.4l40.11-3.18,32.81-2.59a4.43,4.43,0,0,0,1.27-5.34l-35.24,2.79-38.26,3h0a30.42,30.42,0,0,1,.69-12.66A40.84,40.84,0,0,1,311.85,534l0,0L352,530.84l32.81-2.59c2.79-2.11,1.26-5.34,1.26-5.34l-35.24,2.79-40.11,3.17a41.56,41.56,0,0,0-9,16.55,29.75,29.75,0,0,0,.76,18.17A3.52,3.52,0,0,0,304.66,564.4Z" transform="translate(376.27 204)"/><path class="cls-8" d="M905.09,659.09a30.41,30.41,0,0,0-6.58-10.83,40.87,40.87,0,0,0-11-8.25l-.54-3.66,60.67-34.27,20.18,22.07.92,9.27-60.13,27.21Z" transform="translate(376.27 204)"/><path class="cls-12" d="M971.93,634.41l39.1-79.24a29.75,29.75,0,0,0-7.89-16.39,41.58,41.58,0,0,0-15.75-10.34l-39.1,79.24a51.93,51.93,0,0,1,15.12,11.11c3.74,4,7.57,8.63,8.52,15.62" transform="translate(376.27 204)"/><path class="cls-11" d="M994.61,554.26A44.27,44.27,0,0,0,979.7,544l.86-1.75A45.89,45.89,0,0,1,996,553a35.57,35.57,0,0,1,8.33,15.73l-1.4,2.85A33.66,33.66,0,0,0,994.61,554.26Z" transform="translate(376.27 204)"/><path class="cls-11" d="M997.54,549.54a44.37,44.37,0,0,0-15.41-10.44l.86-1.74a45.56,45.56,0,0,1,16,10.86,33,33,0,0,1,8.11,15l-1.4,2.85A31,31,0,0,0,997.54,549.54Z" transform="translate(376.27 204)"/><path class="cls-11" d="M970.06,604.18a44.53,44.53,0,0,0-15-10.26l.86-1.74a45.78,45.78,0,0,1,15.53,10.69,35.54,35.54,0,0,1,8.31,15.63l-1.4,2.83A33.64,33.64,0,0,0,970.06,604.18Z" transform="translate(376.27 204)"/><path class="cls-11" d="M973,599.46A44.23,44.23,0,0,0,957.51,589l.86-1.75a45.86,45.86,0,0,1,16,10.9A33,33,0,0,1,982.49,613l-1.4,2.84A31,31,0,0,0,973,599.46Z" transform="translate(376.27 204)"/><polygon class="cls-11" points="1324.56 811.67 1287.69 827.77 1255.29 841.92 1294.39 762.68 1363.66 732.44 1324.56 811.67"/><path class="cls-18" d="M970.37,636.15l-36.87,16.1-30.16,13.17a4.43,4.43,0,0,1-3.64-4.11l32.4-14.14,35.17-15.36h0A30.55,30.55,0,0,0,960.7,621a41,41,0,0,0-11-8.24l0,0-36.88,16.1L882.65,642a4.41,4.41,0,0,1-3.63-4.11l32.4-14.14,36.87-16.1A41.58,41.58,0,0,1,964,618a29.65,29.65,0,0,1,7.89,16.39A3.48,3.48,0,0,1,970.37,636.15Z" transform="translate(376.27 204)"/><path class="cls-17" d="M-172.95,440.35l-19.33,89.07a1.72,1.72,0,0,1-3.14.55L-238,462.14a2.43,2.43,0,0,1-.27-2l21.24-69.58,13.44,15.16Z" transform="translate(376.27 204)"/><polygon class="cls-10" points="147.38 663.91 163.1 612.41 180.51 632.07 163.95 690.29 147.38 663.91"/><path class="cls-10" d="M-138.35,434-169,399.43l-13.43-15.16c-19.67-7.79-34.61,6.31-34.61,6.31l13.44,15.16,30.67,34.61a33.84,33.84,0,0,1,18.79-8.94A29.73,29.73,0,0,1-138.35,434Z" transform="translate(376.27 204)"/><path class="cls-16" d="M-210.5,391.25a30.64,30.64,0,0,1,16-4.87,27.78,27.78,0,0,1,9.4,1.67l34.31,38.72h-.18a33.18,33.18,0,0,0-3.73.21,37.75,37.75,0,0,0-17.82,7.17Z" transform="translate(376.27 204)"/><path class="cls-8" d="M-188.8,529.42s8.92,1.79,10.4,1.36a38.38,38.38,0,0,1,5.45-.65l4.22-35.1v35.75a7.15,7.15,0,0,1,3.53-.8,36.61,36.61,0,0,1,4.09.8l3.16-64.74,4.65,64.8s5.57-.25,8,0,13.2-1.79,14.5-1.79S-133,506.19-133,506.19s3.9,22.67,5,22.67,7.81-2.6,7.81-2.6L-139.92,435l-8.55-2.05-15.43,3.53-8,5.58-15.43,73.42-2.79,11.9Z" transform="translate(376.27 204)"/><path class="cls-16" d="M-172.95,440.35l-19.33,89.07.35.55a1.71,1.71,0,0,0,3.13-.55L-170,442.93a31,31,0,0,1,17.18-8.17,26.54,26.54,0,0,1,9.86.75l1.15.34,19.89,90.6a1.72,1.72,0,0,0,3.14.55l.34-.55-19.32-89.08-.61-3.33a29.73,29.73,0,0,0-15.81-2.63,33.84,33.84,0,0,0-18.79,8.94" transform="translate(376.27 204)"/><path class="cls-17" d="M1041.29,409.26l62.48-43.91a1.44,1.44,0,0,0-.6-2.6l-66.24-10.83a2.05,2.05,0,0,0-1.62.44l-46.8,39.05,16.08,5.44Z" transform="translate(376.27 204)"/><polygon class="cls-10" points="1414.46 563.7 1379.81 592.6 1400.65 599.65 1440.21 567.91 1414.46 563.7"/><path class="cls-10" d="M1047.68,438,1011,425.62l-16.08-5.44c-12.42-12.65-6.39-28.77-6.39-28.77l16.08,5.44,36.7,12.41a28.39,28.39,0,0,0-.79,17.42A25,25,0,0,0,1047.68,438Z" transform="translate(376.27 204)"/><path class="cls-16" d="M991.17,396.25a25.62,25.62,0,0,0,1.45,14,23.49,23.49,0,0,0,4.35,6.71L1038,430.82l-.06-.14a28,28,0,0,1-1-2.95,31.67,31.67,0,0,1-.26-16.09Z" transform="translate(376.27 204)"/><path class="cls-8" d="M1104.9,368s4.28,6.3,4.44,7.59a32,32,0,0,0,1.27,4.41l-25.72,14.68,27.59-11.63a6.15,6.15,0,0,0,.53,3,31.76,31.76,0,0,0,2,2.89l-49,23.51,51.54-17.5s1.63,4.38,2.6,6.17,2.91,10.77,3.34,11.78-18.38,5.72-18.38,5.72,18.78-4.37,19.14-3.51.53,6.87.53,6.87l-76.87,14.49-4.36-5.93-2.3-13.06,1.71-8,51.66-35.8,8.28-6Z" transform="translate(376.27 204)"/><path class="cls-16" d="M1041.29,409.26l62.48-43.91.54.09a1.44,1.44,0,0,1,.59,2.6l-60.65,42.68a25.93,25.93,0,0,0-.72,15.92,22.2,22.2,0,0,0,3.79,7.36l.64.78,76.42-14.12a1.44,1.44,0,0,1,1.45,2.24l-.32.45-75.06,14.06-2.77.62a25,25,0,0,1-7.18-11.35,28.39,28.39,0,0,1,.79-17.42" transform="translate(376.27 204)"/><path class="cls-17" d="M400.77,673.63l-2.06-91.12a1.72,1.72,0,0,1,2.92-1.27l57.31,56a2.42,2.42,0,0,1,.72,1.87L455.3,711.7l-16.61-11.6Z" transform="translate(376.27 204)"/><polygon class="cls-10" points="826.85 845.51 823.62 899.27 802.08 884.23 804.56 823.75 826.85 845.51"/><path class="cls-10" d="M368.6,687.86l37.92,26.47,16.61,11.6c20.95,3,32.17-14.23,32.17-14.23l-16.61-11.6-37.92-26.47a33.84,33.84,0,0,1-16.18,13.09A29.72,29.72,0,0,1,368.6,687.86Z" transform="translate(376.27 204)"/><path class="cls-16" d="M448.76,712.57a30.58,30.58,0,0,1-14.45,8.49,27.81,27.81,0,0,1-9.53.58L382.36,692l.18,0a32.69,32.69,0,0,0,3.58-1.08,37.86,37.86,0,0,0,15.64-11.14Z" transform="translate(376.27 204)"/><path class="cls-8" d="M395.32,583.32s-9.08.36-10.43,1.12a38.63,38.63,0,0,1-5.14,1.9l4.11,35.11L375.5,586.7a7.31,7.31,0,0,1-3.25,1.61,38.19,38.19,0,0,1-4.16.18l12.08,63.68-19.69-61.92s-5.36,1.55-7.77,1.87S340.3,597,339,597.26s7.52,21.7,7.52,21.7-9.11-21.13-10.19-20.87-7,4.36-7,4.36l40.52,84.11h8.79l14.17-7,6.46-7.3-2.18-75L397.07,585Z" transform="translate(376.27 204)"/><path class="cls-16" d="M400.77,673.63l-2.06-91.12-.47-.46a1.72,1.72,0,0,0-2.92,1.27l1.95,88.5a31,31,0,0,1-14.79,12,26.12,26.12,0,0,1-9.76,1.57l-1.2-.05L331,601.87a1.72,1.72,0,0,0-3.18.2l-.21.62,39.64,82.07,1.37,3.1a29.72,29.72,0,0,0,16-1.14,33.84,33.84,0,0,0,16.18-13.09" transform="translate(376.27 204)"/></g><text class="cls-19" transform="translate(409.22 148.49)">WE<tspan class="cls-20" x="87.24" y="0">L</tspan><tspan class="cls-21" x="115.47" y="0">C</tspan><tspan x="151.92" y="0">OME</tspan><tspan class="cls-22" x="281.34" y="0"> </tspan><tspan class="cls-23" x="292.49" y="0">T</tspan><tspan class="cls-24" x="323.14" y="0">O</tspan><tspan class="cls-25" x="368.06" y="0"> </tspan><tspan class="cls-26" x="379.54" y="0">V</tspan><tspan x="416.96" y="0">VIT LIB</tspan><tspan class="cls-27" x="596.85" y="0">R</tspan><tspan x="632.26" y="0">A</tspan><tspan class="cls-28" x="672.16" y="0">R</tspan><tspan x="706.52" y="0">Y</tspan></text></g></svg>